<mxfile host="app.diagrams.net" agent="Mozilla/5.0 (Windows NT 10.0; Win64; x64; rv:135.0) Gecko/20100101 Firefox/135.0" version="26.0.16">
  <diagram id="C5RBs43oDa-KdzZeNtuy" name="Page-1">
    <mxGraphModel grid="0" page="1" gridSize="10" guides="1" tooltips="1" connect="1" arrows="1" fold="1" pageScale="1" pageWidth="1169" pageHeight="827" math="0" shadow="0">
      <root>
        <mxCell id="WIyWlLk6GJQsqaUBKTNV-0" />
        <mxCell id="WIyWlLk6GJQsqaUBKTNV-1" parent="WIyWlLk6GJQsqaUBKTNV-0" />
        <mxCell id="WIyWlLk6GJQsqaUBKTNV-2" value="" style="rounded=0;html=1;jettySize=auto;orthogonalLoop=1;fontSize=11;endArrow=block;endFill=0;endSize=8;strokeWidth=2;shadow=0;labelBackgroundColor=none;edgeStyle=orthogonalEdgeStyle;fontColor=#000099;strokeColor=#2C3FB1;" edge="1" parent="WIyWlLk6GJQsqaUBKTNV-1" source="WIyWlLk6GJQsqaUBKTNV-3" target="WIyWlLk6GJQsqaUBKTNV-6">
          <mxGeometry relative="1" as="geometry" />
        </mxCell>
        <mxCell id="WIyWlLk6GJQsqaUBKTNV-3" value="&lt;font style=&quot;font-size: 20px;&quot;&gt;Início&lt;/font&gt;" style="rounded=1;whiteSpace=wrap;html=1;fontSize=12;glass=0;strokeWidth=10;shadow=0;fontColor=#000099;strokeColor=#2C3FB1;" vertex="1" parent="WIyWlLk6GJQsqaUBKTNV-1">
          <mxGeometry x="213" y="190" width="140" height="60" as="geometry" />
        </mxCell>
        <mxCell id="WIyWlLk6GJQsqaUBKTNV-4" value="Verdadeiro" style="rounded=0;html=1;jettySize=auto;orthogonalLoop=1;fontSize=12;endArrow=block;endFill=0;endSize=8;strokeWidth=2;shadow=0;labelBackgroundColor=none;edgeStyle=orthogonalEdgeStyle;fontColor=#000099;strokeColor=#2C3FB1;fontStyle=1" edge="1" parent="WIyWlLk6GJQsqaUBKTNV-1" source="WIyWlLk6GJQsqaUBKTNV-6" target="WIyWlLk6GJQsqaUBKTNV-10">
          <mxGeometry x="-0.0708" y="-12" relative="1" as="geometry">
            <mxPoint as="offset" />
          </mxGeometry>
        </mxCell>
        <mxCell id="WIyWlLk6GJQsqaUBKTNV-6" value="&lt;div&gt;sala de&amp;nbsp;&lt;/div&gt;&lt;div&gt;nível 1&lt;/div&gt;" style="rhombus;whiteSpace=wrap;html=1;shadow=0;fontFamily=Helvetica;fontSize=12;align=center;strokeWidth=2;spacing=6;spacingTop=-4;fontColor=#000099;strokeColor=#2C3FB1;" vertex="1" parent="WIyWlLk6GJQsqaUBKTNV-1">
          <mxGeometry x="233" y="290" width="100" height="80" as="geometry" />
        </mxCell>
        <mxCell id="WIyWlLk6GJQsqaUBKTNV-8" value="Falso" style="rounded=0;html=1;jettySize=auto;orthogonalLoop=1;fontSize=12;endArrow=block;endFill=0;endSize=8;strokeWidth=2;shadow=0;labelBackgroundColor=none;edgeStyle=orthogonalEdgeStyle;entryX=0;entryY=0;entryDx=0;entryDy=0;fontColor=#000099;strokeColor=#2C3FB1;fontStyle=1" edge="1" parent="WIyWlLk6GJQsqaUBKTNV-1" source="WIyWlLk6GJQsqaUBKTNV-10" target="v5fqSokADosBoo2Axvqk-18">
          <mxGeometry x="-0.8039" y="9" relative="1" as="geometry">
            <mxPoint as="offset" />
            <mxPoint x="353" y="490" as="targetPoint" />
          </mxGeometry>
        </mxCell>
        <mxCell id="WIyWlLk6GJQsqaUBKTNV-9" value="Verdadeiro" style="edgeStyle=orthogonalEdgeStyle;rounded=0;html=1;jettySize=auto;orthogonalLoop=1;fontSize=12;endArrow=block;endFill=0;endSize=8;strokeWidth=2;shadow=0;labelBackgroundColor=none;exitX=0.5;exitY=1;exitDx=0;exitDy=0;fontColor=#000099;strokeColor=#2C3FB1;fontStyle=1" edge="1" parent="WIyWlLk6GJQsqaUBKTNV-1" source="WIyWlLk6GJQsqaUBKTNV-10" target="v5fqSokADosBoo2Axvqk-10">
          <mxGeometry y="-10" relative="1" as="geometry">
            <mxPoint as="offset" />
            <mxPoint x="243" y="520" as="targetPoint" />
          </mxGeometry>
        </mxCell>
        <mxCell id="WIyWlLk6GJQsqaUBKTNV-10" value="&lt;div&gt;número total de&amp;nbsp;&lt;/div&gt;&lt;div&gt;teclados é par&lt;/div&gt;" style="rhombus;whiteSpace=wrap;html=1;shadow=0;fontFamily=Helvetica;fontSize=12;align=center;strokeWidth=2;spacing=6;spacingTop=-4;fontColor=#000099;strokeColor=#2C3FB1;" vertex="1" parent="WIyWlLk6GJQsqaUBKTNV-1">
          <mxGeometry x="113" y="420" width="160" height="100" as="geometry" />
        </mxCell>
        <mxCell id="yh3GZsZ9kr7gfDC2V5b_-6" value="&lt;div&gt;número total de&lt;/div&gt;&lt;div&gt;&amp;nbsp;cadeiras é primo&lt;/div&gt;" style="rhombus;whiteSpace=wrap;html=1;shadow=0;fontFamily=Helvetica;fontSize=12;align=center;strokeWidth=2;spacing=6;spacingTop=-4;fontColor=#000099;strokeColor=#2C3FB1;" vertex="1" parent="WIyWlLk6GJQsqaUBKTNV-1">
          <mxGeometry x="321" y="375" width="150" height="82" as="geometry" />
        </mxCell>
        <mxCell id="v5fqSokADosBoo2Axvqk-1" value="Porta 1 &amp;nbsp; &amp;nbsp; &amp;nbsp;&amp;nbsp; " style="rounded=1;whiteSpace=wrap;html=1;strokeWidth=5;fontColor=#000099;strokeColor=#2C3FB1;fontSize=16;" vertex="1" parent="WIyWlLk6GJQsqaUBKTNV-1">
          <mxGeometry x="201" y="665" width="120" height="60" as="geometry" />
        </mxCell>
        <mxCell id="v5fqSokADosBoo2Axvqk-2" value="Porta 2 &amp;nbsp; &amp;nbsp; &amp;nbsp;&amp;nbsp; " style="rounded=1;whiteSpace=wrap;html=1;strokeWidth=5;fontColor=#000099;strokeColor=#2C3FB1;fontSize=16;" vertex="1" parent="WIyWlLk6GJQsqaUBKTNV-1">
          <mxGeometry x="53" y="720" width="120" height="60" as="geometry" />
        </mxCell>
        <mxCell id="v5fqSokADosBoo2Axvqk-3" value="Porta 3 &amp;nbsp; &amp;nbsp; &amp;nbsp;&amp;nbsp; " style="rounded=1;whiteSpace=wrap;html=1;strokeWidth=5;fontColor=#000099;strokeColor=#2C3FB1;fontSize=16;" vertex="1" parent="WIyWlLk6GJQsqaUBKTNV-1">
          <mxGeometry x="736" y="655" width="120" height="60" as="geometry" />
        </mxCell>
        <mxCell id="v5fqSokADosBoo2Axvqk-4" value="&lt;div align=&quot;center&quot;&gt;Tema do Quadro&lt;/div&gt;" style="rhombus;whiteSpace=wrap;html=1;align=center;fontColor=#000099;strokeColor=#2C3FB1;strokeWidth=2;" vertex="1" parent="WIyWlLk6GJQsqaUBKTNV-1">
          <mxGeometry x="460" y="607" width="120" height="80" as="geometry" />
        </mxCell>
        <mxCell id="v5fqSokADosBoo2Axvqk-5" value="Verdadeiro" style="rounded=0;html=1;jettySize=auto;orthogonalLoop=1;fontSize=12;endArrow=block;endFill=0;endSize=8;strokeWidth=2;shadow=0;labelBackgroundColor=none;edgeStyle=orthogonalEdgeStyle;exitX=0.5;exitY=1;exitDx=0;exitDy=0;entryX=0.5;entryY=0;entryDx=0;entryDy=0;fontColor=#000099;strokeColor=#2C3FB1;fontStyle=1" edge="1" parent="WIyWlLk6GJQsqaUBKTNV-1" source="yh3GZsZ9kr7gfDC2V5b_-6" target="v5fqSokADosBoo2Axvqk-18">
          <mxGeometry x="-0.7838" y="35" relative="1" as="geometry">
            <mxPoint as="offset" />
            <mxPoint x="583" y="400" as="sourcePoint" />
            <mxPoint x="713" y="400" as="targetPoint" />
          </mxGeometry>
        </mxCell>
        <mxCell id="v5fqSokADosBoo2Axvqk-8" value="Animal ou Casa" style="rounded=0;html=1;jettySize=auto;orthogonalLoop=1;fontSize=12;endArrow=block;endFill=0;endSize=8;strokeWidth=2;shadow=0;labelBackgroundColor=none;edgeStyle=orthogonalEdgeStyle;exitX=0;exitY=1;exitDx=0;exitDy=0;entryX=0;entryY=0.5;entryDx=0;entryDy=0;fontColor=#000099;strokeColor=#2C3FB1;fontStyle=1" edge="1" parent="WIyWlLk6GJQsqaUBKTNV-1" source="v5fqSokADosBoo2Axvqk-4" target="v5fqSokADosBoo2Axvqk-17">
          <mxGeometry x="0.3933" y="13" relative="1" as="geometry">
            <mxPoint as="offset" />
            <mxPoint x="738" y="930" as="sourcePoint" />
            <mxPoint x="793" y="800" as="targetPoint" />
            <Array as="points">
              <mxPoint x="498" y="780" />
              <mxPoint x="588" y="780" />
            </Array>
          </mxGeometry>
        </mxCell>
        <mxCell id="v5fqSokADosBoo2Axvqk-9" value="Falso" style="rounded=0;html=1;jettySize=auto;orthogonalLoop=1;fontSize=12;endArrow=block;endFill=0;endSize=8;strokeWidth=2;shadow=0;labelBackgroundColor=none;edgeStyle=orthogonalEdgeStyle;exitX=1;exitY=0.5;exitDx=0;exitDy=0;entryX=0;entryY=0.5;entryDx=0;entryDy=0;fontColor=#000099;strokeColor=#2C3FB1;fontStyle=1" edge="1" parent="WIyWlLk6GJQsqaUBKTNV-1" source="yh3GZsZ9kr7gfDC2V5b_-6" target="v5fqSokADosBoo2Axvqk-31">
          <mxGeometry x="-0.443" y="8" relative="1" as="geometry">
            <mxPoint as="offset" />
            <mxPoint x="703" y="400" as="sourcePoint" />
            <mxPoint x="723" y="510" as="targetPoint" />
          </mxGeometry>
        </mxCell>
        <mxCell id="v5fqSokADosBoo2Axvqk-10" value="cor da parede" style="rhombus;whiteSpace=wrap;html=1;fontColor=#000099;strokeColor=#2C3FB1;strokeWidth=2;" vertex="1" parent="WIyWlLk6GJQsqaUBKTNV-1">
          <mxGeometry x="53" y="580" width="120" height="80" as="geometry" />
        </mxCell>
        <mxCell id="v5fqSokADosBoo2Axvqk-13" value="Azul" style="rounded=0;html=1;jettySize=auto;orthogonalLoop=1;fontSize=12;endArrow=block;endFill=0;endSize=8;strokeWidth=2;shadow=0;labelBackgroundColor=none;edgeStyle=orthogonalEdgeStyle;exitX=1;exitY=1;exitDx=0;exitDy=0;entryX=0.25;entryY=0;entryDx=0;entryDy=0;fontColor=#000099;strokeColor=#2C3FB1;fontStyle=1" edge="1" parent="WIyWlLk6GJQsqaUBKTNV-1" source="v5fqSokADosBoo2Axvqk-10" target="v5fqSokADosBoo2Axvqk-1">
          <mxGeometry x="-0.5238" y="-10" relative="1" as="geometry">
            <mxPoint as="offset" />
            <mxPoint x="223" y="570" as="sourcePoint" />
            <mxPoint x="293" y="600" as="targetPoint" />
          </mxGeometry>
        </mxCell>
        <mxCell id="v5fqSokADosBoo2Axvqk-14" value="Verde" style="rounded=0;html=1;jettySize=auto;orthogonalLoop=1;fontSize=12;endArrow=block;endFill=0;endSize=8;strokeWidth=2;shadow=0;labelBackgroundColor=none;edgeStyle=orthogonalEdgeStyle;exitX=0.5;exitY=1;exitDx=0;exitDy=0;entryX=0.5;entryY=0;entryDx=0;entryDy=0;fontColor=#000099;strokeColor=#2C3FB1;fontStyle=1" edge="1" parent="WIyWlLk6GJQsqaUBKTNV-1" source="v5fqSokADosBoo2Axvqk-10" target="v5fqSokADosBoo2Axvqk-2">
          <mxGeometry x="-0.5" y="-20" relative="1" as="geometry">
            <mxPoint as="offset" />
            <mxPoint x="143" y="660" as="sourcePoint" />
            <mxPoint x="203" y="720" as="targetPoint" />
          </mxGeometry>
        </mxCell>
        <mxCell id="v5fqSokADosBoo2Axvqk-17" value="Porta 4 &amp;nbsp; &amp;nbsp; &amp;nbsp;&amp;nbsp; " style="rounded=1;whiteSpace=wrap;html=1;strokeWidth=5;fontColor=#000099;strokeColor=#2C3FB1;fontSize=16;" vertex="1" parent="WIyWlLk6GJQsqaUBKTNV-1">
          <mxGeometry x="619" y="750" width="120" height="60" as="geometry" />
        </mxCell>
        <mxCell id="v5fqSokADosBoo2Axvqk-18" value="número de quadros" style="rhombus;whiteSpace=wrap;html=1;fontColor=#000099;strokeColor=#2C3FB1;strokeWidth=2;" vertex="1" parent="WIyWlLk6GJQsqaUBKTNV-1">
          <mxGeometry x="324" y="560" width="100" height="80" as="geometry" />
        </mxCell>
        <mxCell id="v5fqSokADosBoo2Axvqk-19" value="Preta" style="rounded=0;html=1;jettySize=auto;orthogonalLoop=1;fontSize=12;endArrow=block;endFill=0;endSize=8;strokeWidth=2;shadow=0;labelBackgroundColor=none;edgeStyle=orthogonalEdgeStyle;exitX=1;exitY=0;exitDx=0;exitDy=0;entryX=0;entryY=0.5;entryDx=0;entryDy=0;fontColor=#000099;strokeColor=#2C3FB1;fontStyle=1" edge="1" parent="WIyWlLk6GJQsqaUBKTNV-1" source="v5fqSokADosBoo2Axvqk-10" target="v5fqSokADosBoo2Axvqk-18">
          <mxGeometry x="-0.7333" y="10" relative="1" as="geometry">
            <mxPoint as="offset" />
            <mxPoint x="218" y="600" as="sourcePoint" />
            <mxPoint x="363" y="590" as="targetPoint" />
          </mxGeometry>
        </mxCell>
        <mxCell id="v5fqSokADosBoo2Axvqk-20" value="&amp;lt; 2" style="rounded=0;html=1;jettySize=auto;orthogonalLoop=1;fontSize=12;endArrow=block;endFill=0;endSize=8;strokeWidth=2;shadow=0;labelBackgroundColor=none;edgeStyle=orthogonalEdgeStyle;exitX=0.5;exitY=1;exitDx=0;exitDy=0;entryX=1;entryY=0.5;entryDx=0;entryDy=0;fontColor=#000099;strokeColor=#2C3FB1;fontStyle=1" edge="1" parent="WIyWlLk6GJQsqaUBKTNV-1" source="v5fqSokADosBoo2Axvqk-18" target="v5fqSokADosBoo2Axvqk-1">
          <mxGeometry x="-0.8519" y="-13" relative="1" as="geometry">
            <mxPoint as="offset" />
            <mxPoint x="513" y="710" as="sourcePoint" />
            <mxPoint x="453" y="790" as="targetPoint" />
          </mxGeometry>
        </mxCell>
        <mxCell id="v5fqSokADosBoo2Axvqk-21" value="2" style="rounded=0;html=1;jettySize=auto;orthogonalLoop=1;fontSize=12;endArrow=block;endFill=0;endSize=8;strokeWidth=2;shadow=0;labelBackgroundColor=none;edgeStyle=orthogonalEdgeStyle;exitX=1;exitY=0.5;exitDx=0;exitDy=0;entryX=1;entryY=0.5;entryDx=0;entryDy=0;fontColor=#000099;strokeColor=#2C3FB1;fontStyle=1" edge="1" parent="WIyWlLk6GJQsqaUBKTNV-1" source="v5fqSokADosBoo2Axvqk-18" target="v5fqSokADosBoo2Axvqk-2">
          <mxGeometry x="-0.8706" y="-11" relative="1" as="geometry">
            <mxPoint as="offset" />
            <mxPoint x="452" y="660" as="sourcePoint" />
            <mxPoint x="503" y="740" as="targetPoint" />
          </mxGeometry>
        </mxCell>
        <mxCell id="v5fqSokADosBoo2Axvqk-22" value="&amp;gt; 2" style="rounded=0;html=1;jettySize=auto;orthogonalLoop=1;fontSize=12;endArrow=block;endFill=0;endSize=8;strokeWidth=2;shadow=0;labelBackgroundColor=none;edgeStyle=orthogonalEdgeStyle;exitX=1;exitY=0;exitDx=0;exitDy=0;entryX=0.5;entryY=0;entryDx=0;entryDy=0;fontColor=#000099;strokeColor=#2C3FB1;fontStyle=1" edge="1" parent="WIyWlLk6GJQsqaUBKTNV-1" source="v5fqSokADosBoo2Axvqk-18" target="v5fqSokADosBoo2Axvqk-4">
          <mxGeometry x="-0.72" y="9" relative="1" as="geometry">
            <mxPoint as="offset" />
            <mxPoint x="363" y="630" as="sourcePoint" />
            <mxPoint x="463" y="670" as="targetPoint" />
          </mxGeometry>
        </mxCell>
        <mxCell id="v5fqSokADosBoo2Axvqk-24" value="Neve ou Mar" style="rounded=0;html=1;jettySize=auto;orthogonalLoop=1;fontSize=12;endArrow=block;endFill=0;endSize=8;strokeWidth=2;shadow=0;labelBackgroundColor=none;edgeStyle=orthogonalEdgeStyle;exitX=1;exitY=0.5;exitDx=0;exitDy=0;fontColor=#000099;strokeColor=#2C3FB1;fontStyle=1;entryX=0;entryY=0.5;entryDx=0;entryDy=0;" edge="1" parent="WIyWlLk6GJQsqaUBKTNV-1" source="v5fqSokADosBoo2Axvqk-4" target="v5fqSokADosBoo2Axvqk-3">
          <mxGeometry x="-0.6082" y="-10" relative="1" as="geometry">
            <mxPoint as="offset" />
            <mxPoint x="630" y="651.0000000000001" as="sourcePoint" />
            <mxPoint x="1118" y="751" as="targetPoint" />
            <Array as="points">
              <mxPoint x="663" y="647" />
              <mxPoint x="663" y="685" />
            </Array>
          </mxGeometry>
        </mxCell>
        <mxCell id="v5fqSokADosBoo2Axvqk-26" value="Falso" style="rounded=0;html=1;jettySize=auto;orthogonalLoop=1;fontSize=12;endArrow=block;endFill=0;endSize=8;strokeWidth=2;shadow=0;labelBackgroundColor=none;edgeStyle=orthogonalEdgeStyle;exitX=1;exitY=0.5;exitDx=0;exitDy=0;entryX=0.5;entryY=0;entryDx=0;entryDy=0;fontColor=#000099;strokeColor=#2C3FB1;fontStyle=1" edge="1" parent="WIyWlLk6GJQsqaUBKTNV-1" source="WIyWlLk6GJQsqaUBKTNV-6" target="yh3GZsZ9kr7gfDC2V5b_-6">
          <mxGeometry x="-0.659" y="9" relative="1" as="geometry">
            <mxPoint as="offset" />
            <mxPoint x="703" y="140" as="sourcePoint" />
            <mxPoint x="833" y="140" as="targetPoint" />
          </mxGeometry>
        </mxCell>
        <mxCell id="v5fqSokADosBoo2Axvqk-31" value="&lt;div&gt;número total&amp;nbsp;&lt;/div&gt;&lt;div&gt;de lampadas&lt;/div&gt;" style="rhombus;whiteSpace=wrap;html=1;fontColor=#000099;strokeColor=#2C3FB1;strokeWidth=2;" vertex="1" parent="WIyWlLk6GJQsqaUBKTNV-1">
          <mxGeometry x="542" y="366" width="100" height="100" as="geometry" />
        </mxCell>
        <mxCell id="v5fqSokADosBoo2Axvqk-33" value="Múltiplo de 3 e 8" style="rounded=0;html=1;jettySize=auto;orthogonalLoop=1;fontSize=12;endArrow=block;endFill=0;endSize=8;strokeWidth=2;shadow=0;labelBackgroundColor=none;edgeStyle=orthogonalEdgeStyle;exitX=1;exitY=0.5;exitDx=0;exitDy=0;entryX=0;entryY=0.5;entryDx=0;entryDy=0;fontColor=#000099;strokeColor=#2C3FB1;fontStyle=1" edge="1" parent="WIyWlLk6GJQsqaUBKTNV-1" source="v5fqSokADosBoo2Axvqk-31" target="3RyMJ9kwdLAQODDJXoQc-2">
          <mxGeometry x="-0.3702" y="9" relative="1" as="geometry">
            <mxPoint as="offset" />
            <mxPoint x="693" y="470" as="sourcePoint" />
            <mxPoint x="853" y="510" as="targetPoint" />
            <Array as="points">
              <mxPoint x="812" y="416" />
              <mxPoint x="812" y="416" />
            </Array>
          </mxGeometry>
        </mxCell>
        <mxCell id="3RyMJ9kwdLAQODDJXoQc-1" value="binário: 10110000" style="rounded=0;html=1;jettySize=auto;orthogonalLoop=1;fontSize=12;endArrow=block;endFill=0;endSize=8;strokeWidth=2;shadow=0;labelBackgroundColor=none;edgeStyle=orthogonalEdgeStyle;exitX=0.5;exitY=0;exitDx=0;exitDy=0;entryX=0;entryY=0.5;entryDx=0;entryDy=0;fontColor=#000099;strokeColor=#2C3FB1;fontStyle=1" edge="1" parent="WIyWlLk6GJQsqaUBKTNV-1" source="v5fqSokADosBoo2Axvqk-31" target="3RyMJ9kwdLAQODDJXoQc-8">
          <mxGeometry x="0.1585" y="9" relative="1" as="geometry">
            <mxPoint as="offset" />
            <mxPoint x="678" y="630" as="sourcePoint" />
            <mxPoint x="633" y="680" as="targetPoint" />
          </mxGeometry>
        </mxCell>
        <mxCell id="3RyMJ9kwdLAQODDJXoQc-2" value="&lt;div&gt;n = número de&amp;nbsp;&lt;/div&gt;&lt;div&gt;carateres do número&amp;nbsp;&lt;/div&gt;&lt;div&gt;de série do PC A&lt;/div&gt;" style="rhombus;whiteSpace=wrap;html=1;fontColor=#000099;strokeColor=#2C3FB1;strokeWidth=2;" vertex="1" parent="WIyWlLk6GJQsqaUBKTNV-1">
          <mxGeometry x="823" y="358.5" width="190" height="115" as="geometry" />
        </mxCell>
        <mxCell id="3RyMJ9kwdLAQODDJXoQc-3" value="cor da parede" style="rhombus;whiteSpace=wrap;html=1;fontColor=#000099;strokeColor=#2C3FB1;strokeWidth=2;" vertex="1" parent="WIyWlLk6GJQsqaUBKTNV-1">
          <mxGeometry x="654" y="506" width="100" height="90" as="geometry" />
        </mxCell>
        <mxCell id="3RyMJ9kwdLAQODDJXoQc-4" value="Divisível por 9" style="rounded=0;html=1;jettySize=auto;orthogonalLoop=1;fontSize=12;endArrow=block;endFill=0;endSize=8;strokeWidth=2;shadow=0;labelBackgroundColor=none;edgeStyle=orthogonalEdgeStyle;exitX=0.5;exitY=1;exitDx=0;exitDy=0;entryX=0.5;entryY=0;entryDx=0;entryDy=0;fontColor=#000099;strokeColor=#2C3FB1;fontStyle=1" edge="1" parent="WIyWlLk6GJQsqaUBKTNV-1" source="v5fqSokADosBoo2Axvqk-31" target="3RyMJ9kwdLAQODDJXoQc-3">
          <mxGeometry x="-0.0103" y="10" relative="1" as="geometry">
            <mxPoint as="offset" />
            <mxPoint x="723" y="570" as="sourcePoint" />
            <mxPoint x="853" y="570" as="targetPoint" />
          </mxGeometry>
        </mxCell>
        <mxCell id="3RyMJ9kwdLAQODDJXoQc-5" value="Vermelha ou Verde" style="rounded=0;html=1;jettySize=auto;orthogonalLoop=1;fontSize=12;endArrow=block;endFill=0;endSize=8;strokeWidth=2;shadow=0;labelBackgroundColor=none;edgeStyle=orthogonalEdgeStyle;exitX=1;exitY=0.5;exitDx=0;exitDy=0;entryX=0;entryY=0.5;entryDx=0;entryDy=0;fontColor=#000099;strokeColor=#2C3FB1;fontStyle=1" edge="1" parent="WIyWlLk6GJQsqaUBKTNV-1" source="3RyMJ9kwdLAQODDJXoQc-3" target="3RyMJ9kwdLAQODDJXoQc-7">
          <mxGeometry x="-0.4183" y="-10" relative="1" as="geometry">
            <mxPoint as="offset" />
            <mxPoint x="920" y="680" as="sourcePoint" />
            <mxPoint x="1043" y="635" as="targetPoint" />
            <Array as="points">
              <mxPoint x="873" y="551" />
              <mxPoint x="873" y="582" />
            </Array>
          </mxGeometry>
        </mxCell>
        <mxCell id="3RyMJ9kwdLAQODDJXoQc-6" value="Azul ou Preta" style="rounded=0;html=1;jettySize=auto;orthogonalLoop=1;fontSize=12;endArrow=block;endFill=0;endSize=8;strokeWidth=2;shadow=0;labelBackgroundColor=none;edgeStyle=orthogonalEdgeStyle;exitX=0.5;exitY=1;exitDx=0;exitDy=0;entryX=0.5;entryY=0;entryDx=0;entryDy=0;fontColor=#000099;strokeColor=#2C3FB1;fontStyle=1" edge="1" parent="WIyWlLk6GJQsqaUBKTNV-1" source="3RyMJ9kwdLAQODDJXoQc-3" target="v5fqSokADosBoo2Axvqk-3">
          <mxGeometry y="9" relative="1" as="geometry">
            <mxPoint as="offset" />
            <mxPoint x="903" y="720" as="sourcePoint" />
            <mxPoint x="1053" y="720" as="targetPoint" />
          </mxGeometry>
        </mxCell>
        <mxCell id="3RyMJ9kwdLAQODDJXoQc-7" value="Porta 5 &amp;nbsp; &amp;nbsp; &amp;nbsp;&amp;nbsp; " style="rounded=1;whiteSpace=wrap;html=1;strokeWidth=5;fontColor=#000099;strokeColor=#2C3FB1;fontSize=16;" vertex="1" parent="WIyWlLk6GJQsqaUBKTNV-1">
          <mxGeometry x="919" y="552" width="120" height="60" as="geometry" />
        </mxCell>
        <mxCell id="3RyMJ9kwdLAQODDJXoQc-8" value="Porta 6 &amp;nbsp; &amp;nbsp; &amp;nbsp;&amp;nbsp; " style="rounded=1;whiteSpace=wrap;html=1;strokeWidth=5;fontColor=#000099;strokeColor=#2C3FB1;fontSize=16;" vertex="1" parent="WIyWlLk6GJQsqaUBKTNV-1">
          <mxGeometry x="720" y="290" width="120" height="60" as="geometry" />
        </mxCell>
        <mxCell id="3RyMJ9kwdLAQODDJXoQc-10" value="5 &amp;lt; n &amp;lt; 9" style="rounded=0;html=1;jettySize=auto;orthogonalLoop=1;fontSize=12;endArrow=block;endFill=0;endSize=8;strokeWidth=2;shadow=0;labelBackgroundColor=none;edgeStyle=orthogonalEdgeStyle;exitX=0.5;exitY=0;exitDx=0;exitDy=0;entryX=1;entryY=0.5;entryDx=0;entryDy=0;fontColor=#000099;strokeColor=#2C3FB1;fontStyle=1" edge="1" parent="WIyWlLk6GJQsqaUBKTNV-1" source="3RyMJ9kwdLAQODDJXoQc-2" target="v5fqSokADosBoo2Axvqk-17">
          <mxGeometry x="-0.9029" y="8" relative="1" as="geometry">
            <mxPoint as="offset" />
            <mxPoint x="1043" y="390" as="sourcePoint" />
            <mxPoint x="1233" y="780" as="targetPoint" />
            <Array as="points">
              <mxPoint x="918" y="347" />
              <mxPoint x="1117" y="347" />
              <mxPoint x="1117" y="780" />
            </Array>
          </mxGeometry>
        </mxCell>
        <mxCell id="3RyMJ9kwdLAQODDJXoQc-14" value="9" style="rounded=0;html=1;jettySize=auto;orthogonalLoop=1;fontSize=12;endArrow=block;endFill=0;endSize=8;strokeWidth=2;shadow=0;labelBackgroundColor=none;edgeStyle=orthogonalEdgeStyle;exitX=0.5;exitY=1;exitDx=0;exitDy=0;fontColor=#000099;strokeColor=#2C3FB1;fontStyle=1;entryX=0.5;entryY=0;entryDx=0;entryDy=0;" edge="1" parent="WIyWlLk6GJQsqaUBKTNV-1" source="3RyMJ9kwdLAQODDJXoQc-2" target="3RyMJ9kwdLAQODDJXoQc-7">
          <mxGeometry x="-0.4909" y="8" relative="1" as="geometry">
            <mxPoint as="offset" />
            <mxPoint x="1103" y="560" as="sourcePoint" />
            <mxPoint x="1013" y="511" as="targetPoint" />
            <Array as="points">
              <mxPoint x="918" y="498" />
              <mxPoint x="979" y="498" />
            </Array>
          </mxGeometry>
        </mxCell>
        <mxCell id="kBNtGNTOLB4gPQPqJTyC-9" value="9 &amp;lt; n &amp;lt; 13" style="rounded=0;html=1;jettySize=auto;orthogonalLoop=1;fontSize=12;endArrow=block;endFill=0;endSize=8;strokeWidth=2;shadow=0;labelBackgroundColor=none;edgeStyle=orthogonalEdgeStyle;exitX=1;exitY=0.5;exitDx=0;exitDy=0;fontColor=#000099;strokeColor=#2C3FB1;fontStyle=1;entryX=1;entryY=0.5;entryDx=0;entryDy=0;" edge="1" parent="WIyWlLk6GJQsqaUBKTNV-1" source="3RyMJ9kwdLAQODDJXoQc-2" target="v5fqSokADosBoo2Axvqk-3">
          <mxGeometry x="-0.8889" y="7" relative="1" as="geometry">
            <mxPoint as="offset" />
            <mxPoint x="1249" y="514" as="sourcePoint" />
            <mxPoint x="1405" y="552" as="targetPoint" />
            <Array as="points">
              <mxPoint x="1079" y="416" />
              <mxPoint x="1079" y="685" />
            </Array>
          </mxGeometry>
        </mxCell>
        <mxCell id="kBNtGNTOLB4gPQPqJTyC-12" value="" style="shape=image;verticalLabelPosition=bottom;labelBackgroundColor=default;verticalAlign=top;aspect=fixed;imageAspect=0;image=data:image/png,iVBORw0KGgoAAAANSUhEUgAABLAAAAGnCAYAAACnyq5LAAAgAElEQVR4XuzdCXxU1dn48ZmQlYSwKQqyKiiViCACogIJIHsS0Wprtba0vl2s/1br29ratxXbWq2tW1tbbbVi3ZeyJOwiCShbUUEgdUNBBBeUnUBCkpn/GWtsSCZzlnvunTszPz6fft63nXOe85zvOffO3Cd37gQD/EMAAQQQQAABBBBAAAEEEEAAAQQQQMDHAkEf50ZqCCCAAAIIIIAAAggggAACCCCAAAIIBChgsQkQQAABBBBAAAEEEEAAAQQQQAABBHwtQAHL18tDcggggAACCCCAAAIIIIAAAggggAACFLDYAwgggAACCCCAAAIIIIAAAggggAACvhaggOXr5SE5BBBAAAEEEEAAAQQQQAABBBBAAAEKWOwBBBBAAAEEEEAAAQQQQAABBBBAAAFfC1DA8vXykBwCCCCAAAIIIIAAAggggAACCCCAAAUs9gACCCCAAAIIIIAAAggggAACCCCAgK8FKGD5enlIDgEEEEAAAQQQQAABBBBAAAEEEECAAhZ7AAEEEEAAAQQQQAABBBBAAAEEEEDA1wIUsHy9PCSHAAIIIIAAAggggAACCCCAAAIIIEABiz2AAAIIIIAAAggggAACCCCAAAIIIOBrAQpYvl4ekkMAAQQQQAABBBBAAAEEEEAAAQQQoIDFHkAAAQQQQAABBBBAAAEEEEAAAQQQ8LUABSxfLw/JIYAAAggggAACCCCAAAIIIIAAAghQwGIPIIAAAggggAACCCCAAAIIIIAAAgj4WoAClq+Xh+QQQAABBBBAAAEEEEAAAQQQQAABBChgsQcQQAABBBBAAAEEEEAAAQQQQAABBHwtQAHL18tDcggggAACCCCAAAIIIIAAAggggAACFLDYAwgggAACCCCAAAIIIIAAAggggAACvhaggOXr5SE5BBBAAAEEEEAAAQQQQAABBBBAAAEKWOwBBBBAAAEEEEAAAQQQQAABBBBAAAFfC1DA8vXykBwCCCCAAAIIIIAAAggggAACCCCAAAUs9gACCCCAAAIIIIAAAggggAACCCCAgK8FKGD5enlIDgEEEEAAAQQQQAABBBBAAAEEEECAAhZ7AAEEEEAAAQQQQAABBBBAAAEEEEDA1wIUsHy9PCSHAAIIIIAAAggggAACCCCAAAIIIEABiz2AAAIIIIAAAggggAACCCCAAAIIIOBrAQpYvl4ekkMAAQQQQAABBBBAAAEEEEAAAQQQoIDFHkAAAQQQQAABBBBAAAEEEEAAAQQQ8LUABSxfLw/JIYAAAggggAACCCCAAAIIIIAAAghQwGIPIIAAAggggAACCCCAAAIIIIAAAgj4WoAClq+Xh+QQQAABBBBAAAEEEEAAAQQQQAABBChgsQcQQAABBBBAAAEEEEAAAQQQQAABBHwtQAHL18tDcggggAACCCCAAAIIIIAAAggggAACFLDYAwgggAACCCCAAAIIIIAAAggggAACvhaggOXr5SE5BBBAAAEEEEAAAQQQQAABBBBAAAEKWOwBBBBAAAEEEEAAAQQQQAABBBBAAAFfC1DA8vXykBwCCCCAAAIIIIAAAggggAACCCCAAAUs9gACCCCAAAIIIIAAAggggAACCCCAgK8FKGD5enlIDgEEEEAAAQQQQAABBBBAAAEEEECAAhZ7AAEEEEAAAQQQQAABBBBAAAEEEEDA1wIUsHy9PCSHAAIIIIAAAggggAACCCCAAAIIIEABiz2AAAIIIIAAAggggAACCCCAAAIIIOBrAQpYvl4ekkMAAQQQQAABBBBAAAEEEEAAAQQQoIDFHkAAAQQQQAABBBBAAAEEEEAAAQQQ8LUABSxfLw/JIYAAAggggAACCCCAAAIIIIAAAghQwGIPIIAAAggggAACCCCAAAIIIIAAAgj4WoAClq+Xh+QQQAABBBBAAAEEEEAAAQQQQAABBChgsQcQQAABBBBAAAEEEEAAAQQQQAABBHwtQAHL18tDcggggAACCCCAAAIIIIAAAggggAACFLDYAwgggAACCCCAAAIIIIAAAggggAACvhaggOXr5SE5BBBAAAEEEEAAAQQQQAABBBBAAAEKWOwBBBBAAAEEEEAAAQQQQAABBBBAAAFfC1DA8vXykBwCCCCAAAIIIIAAAggggAACCCCAAAUs9gACCCCAAAIIIIAAAggggAACCCCAgK8FKGD5enlIDgEEEEAAAQQQQAABBBBAAAEEEECAAhZ7AAEEEEAAAQQQQAABBBBAAAEEEEDA1wIUsHy9PCSHAAIIIIAAAggggAACCCCAAAIIIEABiz2AAAIIIIAAAggggAACCCCAAAIIIOBrAQpYvl4ekkMAAQQQQAABBBBAAAEEEEAAAQQQoIDFHkAAAQQQQAABBBBAAAEEEEAAAQQQ8LUABSxfLw/JIYAAAggggAACCCCAAAIIIIAAAghQwGIPIIAAAggggAACCCCAAAIIIIAAAgj4WoAClq+Xh+QQQAABBBBAAAEEEEAAAQQQQAABBChgsQcQQAABBBBAAAEEEEAAAQQQQAABBHwtQAHL18tDcggggAACCCCAAAIIIIAAAggggAACFLDYAwgggAACCCCAAAIIIIAAAggggAACvhaggOXr5SE5BBBAAAEEEEAAAQQQQAABBBBAAAEKWOwBBBBAAAEEEEAAAQQQQAABBBBAAAFfCzguYIXD4Rm+niHJIYBAwgoEg0HOLwm7eiSOAAIIIIAAAggggAACCNgTcFzAKhg9N2wvHSIhgAAC/xXYvLzU8TkKTwQQQAABBBBAAAEEEEAAgcQXcHxxSAEr8TcBM0DArwIUsPy6MuSFAAIIIIAAAggggAACCHgrQAHLW29GQwABDQEKWBpYNEUAAQQQQAABBBBAAAEEkliAAlYSLy5TQyDRBShgJfoKkj8CCCCAAAIIIIAAAgggYEeAApYdR6IggIALAhSwXEAlJAIIIIAAAggggAACCCCQgAIUsBJw0UgZgVQRoICVKivNPBFAAAEEEEAAAQQQQACB2AIUsNghCCDgWwEKWL5dGhJDAAEEEEAAAQQQQAABBDwVoIDlKTeDIYCAjgAFLB0t2iKAAAIIIIAAAggggAACyStAASt515aZIZDwAhSwEn4JmQACCCCAAAIIIIAAAgggYEWAApYVRoIggIAbAhSw3FAlJgIIIIAAAggggAACCCCQeAIUsBJvzcgYgZQRoICVMkvNRBFAAAEEEEAAAQQQQACBmAIUsNggCCDgWwEKWL5dGhJDAAEEEEAAAQQQQAABBDwVoIDlKTeDIYCAjgAFLB0t2iKAAAIIIIAAAggggAACyStAASt515aZIZDwAhSwEn4JmQACCCCAAAIIIIAAAgggYEWAApYVRoIggIAbAhSw3FAlJgIIIIAAAggggAACCCCQeAIUsBJvzcgYgZQRoICVMkvNRBFAAAEEEEAAAQQQQACBmAIUsNggCCDgWwEKWL5dGhJDAAEEEEAAAQQQQAABBDwVoIDlKTeDIYCAjgAFLB0t2iKAAAIIIIAAAggggAACyStAASt515aZIZDwAhSwEn4JmQACCCCAAAIIIIAAAgggYEWAApYVRoIggIAbAhSw3FAlJgIIIIAAAggggAACCCCQeAIUsBJvzcgYgZQRoICVMkvNRBFAAAEEEEAAAQQQQACBmAIUsNggCCDgWwEKWL5dGhJDAAEEEEAAAQQQQAABBDwVoIDlKTeDIYCAjgAFLB0t2iKAAAIIIIAAAggggAACyStAASt515aZIZDwAhSwEn4JmQACCCCAAAIIIIAAAgggYEWAApYVRoIggIAbAhSw3FAlJgIIIIAAAggggAACCCCQeAIUsBJvzcgYgZQRoICVMkvNRBFAAAEEEEAAAQQQQACBmAIUsNggCCDgWwEKWL5dGhJDAAEEEEAAAQQQQAABBDwVoIDlKTeDIYCAjgAFLB0t2iKAAAIIIIAAAggggAACyStAASt515aZIZDwAhSwEn4JmQACCCCAAAIIIIAAAgggYEUgIQtYuW0ztqxdOLmfFQGCIICAVCAcDheeUVhWIW1ouQEFLMughEMAAQQQQAABBBBAAAEEElSAAlaCLhxpI+ClAAUsL7UZCwEEEEAAAQQQQAABBBBAoLkABSz2BAIISAUoYEmJaIAAAggggAACCCCAAAIIIOCiAAUsF3EJjUCyCFDASpaVZB4IIIAAAggggAACCCCAQGIKUMBKzHUjawQ8FaCA5Sk3gyGAAAIIIIAAAggggAACCDQToIDFlkAAAakABSwpEQ0QQAABBBBAAAEEEEAAAQRcFKCA5SIuoRFIFgEKWMmykswDAQQQQAABBBBAAAEEEEhMAQpYibluZI2ApwIUsDzlZjAEEEAAAQQQQAABBBBAAIFmAhSw2BIIICAVoIAlJaIBAggggAACCCCAAAIIIICAiwIUsFzEJTQCySJAAStZVpJ5IIAAAggggAACCCCAAAKJKUABKzHXjawR8FSAApan3AyGAAIIIIAAAggggAACCCDQTIACFlsCAQSkAhSwpEQ0QAABBBBAAAEEEEAAAQQQcFGAApaLuIRGIFkEKGAly0oyDwQQQAABBBBAAAEEEEAgMQUoYCXmupE1Ap4KUMDylJvBEEAAAQQQQAABBBBAAAEEmglQwGJLIICAVIAClpSIBggggAACCCCAAAIIIIAAAi4KUMByEZfQCCSLAAWsZFlJ5oEAAggggAACCCCAAAIIJKYABazEXDeyRsBTAQpYnnIzGAIIIIAAAggggAACCCCAQDMBClhsCQQQkApQwJIS0QABBBBAAAEEEEAAAQQQQMBFAQpYLuISGoFkEaCAlSwryTwQQAABBBBAAAEEEEAAgcQUoICVmOtG1gh4KkABy1NuBkMAAQQQQAABBBBAAAEEEGgmQAHrMxBxgX72GYVl62zukM3LSx372syHWAiYClDAMpWjHwIIIIAAAggggAACCCCAgA0BxwWWgtFzwzYS0YmR2zZjy9qFk/vp9JG1pYAlE+L1VBaggJXKq8/cEUAAAQQQQAABBBBAAIH4C1DA+mwNKGDFfzOSgX8FKGD5d23IDAEEEEAAAQQQQAABBBBIBQEKWBSwUmGfM0eHAhSwHALSHQEEEEAAAQQQQAABBBBAwJEABSwKWI42EJ1TQ4ACVmqsM7NEAAEEEEAAAQQQQAABBPwqQAGLApZf9yZ5+UiAApaPFoNUEEAAAQQQQAABBBBAAIEUFKCApVjA4hcFU/DoYMqfC1DAYjMggAACCCCAAAIIIIAAAgjEU4ACFgWseO4/xk4QAQpYCbJQpIkAAggggAACCCCAAAIIJKkABSwKWEm6tZmWTQEKWDY1iYUAAggggAACCCCAAAIIIKArQAGLApbunqF9CgpQwErBRWfKCCCAAAIIIIAAAggggICPBChgUcDy0XYkFb8KUMDy68qQFwIIIIAAAggggAACCCCQGgIUsChgpcZOZ5aOBChgOeKjMwIIIIAAAggggAACCCCAgEMBClgUsBxuIbqnggAFrFRYZeaIAAIIIIAAAggggAACCPhXgAKWYgFLdQk3Ly91bKo6Fu0Q8EqAApZX0oyDAAIIIIAAAggggAACCCAQTcBxsaVg9Nyw17S5bTO2rF04uZ/NccUF+tlnFJatcxqTApZTQfr7UYAClh9XhZwQQAABBBBAAAEEEEAAgdQRoID12VpTwEqdTc9M9QUoYOmb0QMBBBBAAAEEEEAAAQQQQMCeAAUsClj2dpOIFCl0iP8T+U9A3NF2U6zgmypLbhav7xP/2RAMBiutJkIwqwIUsKxyEgwBBBBAAAEEEEAAAQQQQEBTgAIWBSytLSMKGZ1EYeqbPU/KG7l956Firc6ajXt3b1e1bcfBh9PS0mo3VhT/QbM7zS0KUMCyiEmoTwXOumDeFScen3Np0/OIOK+Ud+7Q9oZH/jziNZgQSAQB8RiFH/Xp2e7KrdsPFjTm2y4389ZV8yfeKv4wczAR5kCOCCCAAAIIIIBAoghQwKKAFXOvisJF72ET5r92pLYh2y+bWty5NUlcGCzySz6pkAcFrFRYZe/mqPLsRC+fJyj294WiMD9bR0Cch6aJ89AcnT60TR4BsWc6iD2zVzYjL/exLBdeRwABBBBAAAEEEl2AApZiAStVPoSKD+WDxIfy9Ym0sX9/09lPTRxz0pcTKedEy5UClv9XLLJG4y997qkPdh3pEivbtm3TD69dMHlKPL62K3L8uji/PKSqKYpE00WeM1Xbm7QTOZ0jclpt0lfk10vkt92kL30SV2Dil557dMeHhy9XnUGqfH5Q9aAdAggggAACCCBgKkABiwKWEAgH/zzzzQV/fuj1iaYbyS/9po3v9dVf/WzQo37JJ1nyoIDlv5U8vahsQIfc9IoDB+uOd5JdmzbB+rpwYNC/K0qqnMSR9R0ypLxtbV6oWtau+etuX/yfWVRW3xAKt9HNK9K+fbuMAyvnTW5v0pc+iSugcgeh1/s4cTXJHAEEEEAAAQQQUBeggJXCBayV//r4kW//aNUV6tslsVqKuyOK4nGXSWIpqWVLAUvNyYtWJhfPOnmJ4+YEcdzs0umj0tY070EFnVY+eu/I81XG0G0j9vUM2Y9NyGIKr3uE17WydryeHAKm+1jMvloUY/OSQ4FZIIAAAggggAAC8RGggJWCBaz/u23DA3MWvvvN+Gw570edMqbb5N/eNHSh9yMnz4gUsOK7lt1HPJ3TITPrsJdZ9O7RbtC8R8e8amtMBxf+AbfuwnKSU1MXUcTKEUWsGltWxPGngDgPthcFz8gv52r/SwsG6jZWlmZqd6QDAggggAACCCCAwOcCFLBSpIAlPnh3P7OofGMoHO6Ysvs/HNi1eUXpCSk7fwcTp4DlAM9h10FjyqrrG8JtHYYx7m6reOSkWGQrh6YIA4vKDoVC4VxjmCYdxRvp0U3LS7NsxCKGfwXEHr5dZPcj0wzd2MemudAPAQQQQAABBBBIRAEKWElewBo4cHFuqGPNoUTcnG7l/IvrB828tKTXdLfiJ2NcCljer+qM379y+rPl77n6XCrVWc340eBZX5za82LV9tHa+amAdfNvXxn7zIL3ljqZT/O+37ys7yXXfWfAszZjEstfAhSw/LUeZIMAAggggAACqSdAASuJC1hOLhhT5VDgL+JqK00BS83JViu/HrtOfnXPyZxsHqdiLwfF18BCttaqaRybebqRHzGdCVDAcuZHbwQQQAABBBBAwKkABawkLGANnzT/7urD9T9wujlSpX9u2/R71i6cwkOYYyw4BSxvjobr7lyV89zcjz191pX2zIKBmzdXls7Q7eeXAtb5JYte27e/tr9K/o0FKfE1zjrxNc50WZ/jO2dvr5g1oZesHa8npoCTZ2CJZ6TVigJwdmLOnKwRQAABBBBAAAF/CFDASqIClvhw3UHcWbDXH1sr8bLg7onW14wClvv7WRj3FMfvu+6PZGcE3ePl8qtfuO/Vqj3f1h29S6e231o2+4K/6faL1l5nH29eXtImEAh+eqfWgAFPZwaPy6pVyUEUKa4TxYq7VdrSJvEETAuxv/rxmV+cNqX3PxNvxmSMAAIIIIAAAgj4R4ACVpIUsEZMXvibg9VHf+qfrZWYmbTLzbx19YJJNyZm9u5lrXPhbzML3SKJzbG9jCV8M0XxSqlA4mVescYyOVZMLv5t7QFhnCaMG1T8RBGqvyhCvdG0rejfTvQ/oNLfVs4qY9HGWwGdfdCYWUZGWvX6pcV53mbKaAgggAACCCCAQPIJUMBKggKWyUVh8m1luzPiAvRYTwpYdvdX82iJfAzrHis6c9WNHWuVpnx12ZZ3tx88RbaS37qy/6Dvf/O0V6O16ztpQVb24boaWYzI6zZzVxmPNt4J3HrXa70fm/PmVtURNwfzMwKVRfWq7WmHAAII2BAYMr58Vm1taFq0WOFA+M9Vyy/8no1xiIFAKgsMHT/vkyO1DZ0jBmnB4IsbK0tGprKHF3OngJXABaxRxYv/d8+Bmt95sVFScYz8/JwJq8rHL0nFuTefMwUs93bBqNJFe/fsq+3g3gjuRhZ3K6WLu5WU7mxqzGRgUVl9KBQWX9GL/i8tLdiwsaJE+swp1ZmJ/Zst7p46otD+sCg85cZqJwpwkV91jdkm0r9TfvaPVpRP+L3CmDRJQAHFr/weEfupbQJOj5QTSKD5HwUonifQ4rmQquofiShguYBPyJQSGDphftWRmvrTo006HMxvV1VZFPm8yD8XBChgfYYqPoyeLS5w1rVm7LcPBKpvUC7smZQL6be1j8cCUMByRz1ZjmPTY0Tsq2vFefeuRl1RDLtZFMNm2NZWce7aJefZ554Zf4nK2FOuWFby7nsH58ramrrI4vK6vwSa7y+xj6eJfTzHX1mSTbIKpGIBa0Dh7EGx1rOqctqGZF3v1uZ1ZlHZiw2h8Hmq86aApSpFO5sC3Uc8ndMhMyvmjxUlwmen86cumbbv4JFZsWwSYR4219bLWBSwvNS2NJbKxZiloQjzmUCqn4QoYNk/FMZevPRrH31SPdNW5OM65VxTOXv8vSrxii9f+outO6pvVmmr0iY3J/PMtYsmbVRp63UblfPlGf07VDxx/+gxOrldPL3i7jfeOSD9tddUP3fomNIWAQT0BVKxgCU7r6faeVfmEW1XUcDSP9bo4VxAYa+OF8fvc85HcjeCwjw+TSDVzkXuqv83OgUsr6QtjCOKCOniboU6C6EIYSCQyichClgGG0bSRfXNTzby3L8XnnrKKe3fkrWL+gE2HO4tzinKz/KJFiOVjwsTc/oggAACNgUoYLXUTKX3JdPPEhSwbB6FxFIROHvCvOqamoaYX6tPlGNX9bhLlPmorJ+f2lDA8tNqxMhFFBDOFxeaLyRIukmbpvhqyOXiqyGPJ+0EW5kYBSy7Ky57BpTKaDafsWTyPL1wMDi9qrJkpkqutEEAAQQQcEeAAlbqFrAKpy3+2id7aozehylguXM8ErV1AVnRJ5GKPbK5NCok0pwSae9SwEqA1frT398cft/Dr61JgFRTIsVwOFBataK0LCUm+9kkKWDZW22V7//LRhOF1MGikGr1GR9ijZXvxuINWbZCvI4AAgh4I0ABK3ULWKoX0dF2IgUsb45PRvmPgGyvuvm50o2xZTEpYLm78ylguevrOPqA0XO3ikXq7TgQAawKhAOBbVXLS/tYDerjYBSw7C3OoLFl++vrw/mmEU1+9U9nLPGmHPlFwbRofXp3z1s477Gxk3Xi0RYBBBBAwD0BClipWcA6+4J5S2uONozV2Vm9erZ7u7F9XV3o1iVPjntQpz9tETARGD5p0c3Vh2t/0VpfN4tXbhXPzi1e8PsDB+quj+Xh9rxM1iJZ+lDA8vFKig8lj4j0rvBxiimdWpfOOf+zbNb4B1IBgQKWvVVW/atNtBFF8aqjuPNqn71sokeKliNvxG6rEx8BBBDQF6CAlZoFLJXPEoeC+TnbKotq9HcVPRCwJxBrr3bKz5iwonzyEnujtYwkO1ZMP9+KX/7cL375M+ofpI/r1HZk5ewLXnRzXqkcmwKWT1dfFAy+Lp559ZBP0yOtJgKmJ75EQqSAZWe1ZG+isUbZHMzPCFQW1dvJRBZlRlrB6MGRO7EC0yb2nP6rnw6eKevB6wgggAAC3gtQwKKAFW3XpcJnU++PNkbUFZB97vVin7qdQyqeg3X3ge32FLBsi1qJFxYXj2WfXjzyz/8CXpx8461AAcvOCsjeRGMWsJaXOj5f68xCrPl3RPs1Np+11btwdgedHCJtt1VOc/2Os8g4las+mnbNT9fMUsnvsXtH3V16TeXNXuSmaxYrp0isokEnzF63/uPCWPO895ahF48+/8W5gcClvnkf+t0fX+3zr417y197c/8AlTW6/RdDxk4eu2q5G3MYMKAqs/r4N2P+klLTHLdVvnogEJgRUsnbSZvI+j55x3nTrvrh6r/L4hwKhjq2tlciz+lLz8rIksU4do72j9OB4xfn3nbDgOE//uXLz6vk8sCdI77x5etXzvbiuFTJx6s2qXjxJHsvTfbPZRMuff6GnR8duq21PZaWFjyysaJE+Rzl1V5lnNQSOHv8vIKa2oZNrc3aq+M01c8XybjrHF8QyTaFG2i5bTO2rF04uZ8bseMdU+dByvHOlfH/K+DGQ7X95EsBy8JqDLk/oyDvxKMmkbx6kzfJTaePyfuFm3M3ySfafMXx30cU+rbpWKi21c1R5FIkcqlsGl8cvzPEHb03qY7ZtJ2b/rJ8Sr5W8eY72w5Yea+3OQ/dNbn+O6c/Pv2yfpfL5mv6um4+zcdpvn8HjJ5zbzAQvFonH5u+3/3x2tteWPvhDTrjR2trMyenubjZnwJWS91kX3vZMZ/s83fzeCK2PYFY+9TLPcrxYm9N/RKJApZfVkLkUTB27gmB+sCHPkqJVDQENi9f38aLv7JrpGStKQUs55TiYnyJuBi/QDfSwC90uOLx+0Y/ptvPj+1lHyK8ugi1WRhpmvNJnTt2Wzxr1Ac27XXNmhawxHGbLQpXR5zm07tnux3zHhnTw2kclf4i5/Qplz8/a/vO6mKV9jpt+p2cv3rW3wtHigKfozvLdNfEjQKWcEobPmn+O4ePNPTSMWitbeeOWTsqZ0/oJWxC8SpgFX9t2YCt2w5utjGfxhjp6cF965cWd47My2ZcP8WigEUBq7mAl8UBPx0L5OIfAb8UryIisvdsjhf/7BvVTChgqUp50E52gHmQAkM4FEjWkyAFLIcbQ+ENtLURkmlPmZzjbM7fyZ1IOjvAZs66Zo0FrG5Dytt2ygtV6+Qta2tzXtHGeuSZd6787Z82PSzLw+nrwmiaKGjMMY2juya2C1hDJ8xbdaSmYYRp/rH6RdY4HgUsXVPduYs1/65Y8/t0+yVCewpYFLAoYCXCkZpaORZdtDjqH/MO19ZNXTt/6steasjeX9z+bOPlXFNlLApYPllp2cHlkzRJQyKQmZ1JToEAACAASURBVJn26ivPFQ9KNigKWM5X1PQYT6Y3VhMDW/MffdGiV3fvrh3ofCXlEY7vlL27YvaE4+Qt5S10zRoLWLr95JkEAnltM15Zs3DyEJW2um0GFpUdCoXCubr9TNtnZ6W98dKS4v4m/XVtbRawdMc2mV84EP6zl18h9GJOEYfjOuVcUzl7/L0mJn7uQwGLAhYFLD8foeQWbwHZe4ytz5nxnmcqjU8BywerfdV1q36y5pWPb/VBKqRgQeDZBwqv6N+vfVJ85auRgwKWs41h6pdsb6qyDxHRlG0YmIzrbMX/0zseuUcKWOJrgxU28o8WQ8S/WdzJMsNWfHFsdBD57rUVTzeOyRrp7idbBSzdcXUtnLQ3cYyM5/WcTPN0YuN2XwpYFLAoYLl9lBE/kQVk7zPJ+L6QyOulkjsFLBUll9vIDiyXhye8CwLJdjI0LcA4pU0Wx8u+s+LNTa/t1X4YdbLMv3EfmJzrnBqYjOl03zbt73X+p/Vt/9obW/Z/weYc3Lw4ivf6mBQadXO2UcDSHdPN9Y8W22SfX3H1isUbqvaOT4Rcvc5RZzwKWBSw3DxH6+xF2iLgRwHZ+6fJ+5cf55lKOVHAivNqyw6qOKenNPzUcT0evu3nZ31dqbGkkVfPqLGRqyxGMp0QKWDJVjv266bHeTLtoYiQiYMTgyHj5h2prWvIdrZ6zns7mYOJmfOMY0fo0D7zvRfLJvV0Oo6f5qazRrp5Oy1g6Y7ndF1M+uv4ReKL95S+4s67t0zGstFHN18bY7oVgwJWS9lkWt9o+0Z2Tkj2+bt1LBE3OQU4XpJvXSlgxXFNzxxTdrChIZwXxxSMhs7JSf/gcE3dLVWVF7r6LIlzpy4dccLxbe54650Drjys1mjyip26d8tdtOiJcZMUm/u+GQUsZ0ske/OMFj0vN/3VNQumJNXz1EwcTD+IDxRfSwuJr6c5Wzk7vdu0CR54dVlJe5NoJmYm4+j22Xe0tu2O1Zca/8LhwKK5R0OhQIbuuG61HzOy65N/+PWwy1Ti666JkwLWoLHlNfX1oSyVvOLZRvc4FcWrusgvTsYrZ91845WnyrgUsOJXwCoomjslEArMi7ZOvbvnPTLvsbFXqqyhbhvZOciL/T3mokWrdu2ubfXz+cm98meU/aPoZt25udW+7/AF+dnZdfujxc9tm3bJ2oXFz7ozdjg4sKj8sHjGY8s/pgUDuzdXlho/L/PMorLDDaFwTtS80wJTN1eUzndnTrGjnjVu3rajddF/IVc8f3KreP7kyV7m5YfjxeZ8C0bN/SgQDHRpJWY4kBYo9nLtp02veERcq18RNZ9wYNfmFaUn2Jx/JBYFLNuiivHuf/TtM/74t80bFZv7opl49skU8eyTBfFIRnzQHSQ+8K6Px9i6YwqnjsJpn24/P7engOVsdWRvntGjhxdsXn7hFGcj+6u3iYPJB/Hb7tl07qOz3lnpp9l//6rTSr/11f5lujmZmOmOYdL+h985/dZvXNbvRpO+i5btfPJ/b37pSyZ93eqjs89018S0gNW374Ks7JPqatyas824On6Rz57CMGRzfN1Y4WBwelVlyUzdfn5sTwGr5apo7seYdwdHi6V7DqirD5z0xsrS93X2j+QiVSfUMW1rQhldtrww+WOTALrzbjqG7prEyi9WHs3H6Tvy6eOz07J2qc63tTxjjRntfKJrldc25/w1C8dLP7foxo3M26Z9a44meUXLrXfh7A554bRWn4sZay6mOcTaG07Gs+U+dPycHkdqg9tV93DTdsFg4O5NlaXXmfSN1WfgmLLaUEM4Uzeu7vm0NUMKWLryltqfUTS3IRwSNdIE+NepU9uLV8y+YJYfUv3NH6pOf2L226+EQ2Hf/UW6e9e2Kxc+MW6UKF7F9YO5G+tEAcuZqtmbKgUs0w9ewrtB9PXd+dXkw4zZ3nG2X1V7m8xHnEvaiz9G+KbAP+SszgUP33V+leqcI+1018S0gKU7js4cbLfV2QvdhpS37ZQXqtbNISMjrbauPnSbuGNhRqSv2EvZ1/xk3bDlaz5YrhvrtJPz5/3zoaJi3X5+bE8Bq+Wq6OxH2THdNJawjtx1avy1dJ28/FTAsnku0jFo7XhTLWCdX7LowX37a7+hetx27pT92vLZE06P1l61gDV80vw11Yfrh6uO2bxd6z4z0gpGD458tjH9d1jEtv5Lvzb2Rvv8jGUryyePjUyMAtZ/l3fgqLI+oWD4HdMFb9qvQ/ushS+WTZzsNJb49lit+PaYduGq6bhpacGDGytK8hv/N9XjuWkMClhOV9Kg/6ub9951+fdWXGvQ1dMu4k6i60Qx5m5PB9UYzMZJU2O4mE39buV0nhSwnAma7FWxpy4Sx99sZyP7q7eJg+6H3dOLygakhcKbTWfetUvOrueeGR/1dmenv5inO5fIHEzMTOeu289kPhMvW7ptx/vVvXTHcqO9Sf4ma2JSwFq3Yfd103/w4p1uzNuNmDqWGzbtmXrFNS+U6+YRa4zb/1w1+x9PbblQJ6ZOzjpxvW5LAauluO7aqlxA2ToXq+bmhwLW0Inzf3rkSP1vbO/p3My0U9c+V2z8DDyV9RpwfnnPYJvQuzq51wTre2ypvHhHtD4qBSy39siQCfNuqK1puE1nLq21Vd1/srEGj5nfq66hfpusnc7rkdwoYP1HzNZeau5vvP6FFekF4QN1Ouspa9uYi8rx3DwWBSyZruXXxQVQF/HX548sh7Ua7qSubd9a/OQFp1oN6lIwselvF6F/5FJ4pbDGJwOl6P5oRAHL2TqYvRFxB1ZEXff4MrMOBHJz0jeuXTTlTJWV/vb/rh2xct2Hq1TaOv3wYDqfxnG7n9h207lDu37zF/9bsK5pLmddMO/Go0cbbjGZQ2MfUWQ9WRRZt6rGEOeRXPH+d0i1fbR2XTpnlz//z/HTxbi7m78u4p9yzuQFfxR//Y75/MGcnDZ/Xbdo6rdN89BdE5MClu4Y0eYSmee/Fk65Xli1MP/sTrif2Xr/1DlOTQpYYq9linnE/PCsa6aTs+le8aIfBayWyrprK7uA0t1bsnVXyS/eBSzbc45mouIQrZ9svSJ9TPKPlY+sgBUMhx+SrbvO6425nD910Zn7DtZu0OkraRsWsR3doX72hPnv19TUd7WY0+ehDgVDHVP9K4Qme1dnLXSPu5EXLrp2797au3TGUG0byUXleG4ejwKWqrCldiNLFn68d/9R4wf2WUqj1TC6m9rtfFTju32wR8tjSEHHmx6+d9QvVXNM5HYUsJytntn+pIAVUdc9J5lZ649j+gFZXIi3FRfiyg8/N52Pqt2QC8pfqT0aGmyyw+fOLPrGKX3ylT+0O5mL6nwa59HaWMK/i/A3ev6LLHZrhroFrIKisksDofBTJmvS2EfnuPn9X6qWznxyy6df3zD9pzOeSQFLJb7u/lKJaerhZT8KWC21ddc21t7Jb5d5/YGDR++wuaY5WW2OrFsytW2smPEsYOkeS05sdNdK9t4ruyCOlatpASsQDnxTPFX6QScOzftuXr6+TSAwI+TGWqTnZPbZsGjSNpN83cinWR4fiv9+Ymu5Ga+RyWQln0FlFvp7OyyKOWWePIbmsyJmWMYyYPScO4OBoPVnaMnGlX2WoYClKmih3dtv7+9X+o3KNy2Esh5i7Pld/3zPLcO+Zz2whwG/+r3Vw9dv3rXGiyH1T0peZOXeGBSwnNnK3uSiRU9PT6vY8HzxGGcj+6u3iYPOsWYS//jO2X+pmDXhahOpH/583eAlK95/Ra+vXmHSZE6RfHTcZtz+ypXPzn/vYb15RFoHKzcvLylS7Wc6ly9P63Pp/1078BnVcRrbNR0vKzt95suLp0zXjRGtve48tAtYo+dKP1S2No/LLupz+c9+MPBx3Xk6ff/U2W+mz8DSGUN3/oncngJWy9XT3Su6x7SN/SLLMV4FLK8tsrPT3ntpcXFPHVPZHRumc/C6OKIzZ9ttZfsv2nhjvvjcr3Z9fPj/bOeiE8/rNXIynq6x6b7V8WtsuzmYnxGoLKqP1df0vdokn9b6tGZIAcumsiSWlxtTc1rVYoPkafbxZXNRaEkTX1Fx8pBD2bySxko20aavU8DS0WrZ1uTY79A+c8eLZZN6OBvZX71NHHQ+ALgdP5qm7g9yZKSn1a1/vlj5AZgmc2oI1Xd77YWLP9BZfTGO/oPvw4Hl4ueRC1XGmXR5xRff23FAuwj1zS/1+5/rrj79AZUxWlmf2o3LSs4Wd11tMo3RvJ/umnhVwBp+VpcfPnjXCOPb/H9998ZLnpy99WkTJ53j1MmH4mT69UAT52h9KGC1VNHZj5Heusd00xGDaYGjgVCgQVSdc3TWNL1N2rsblhX31unT2FaWr+78G+Oedt7cbhnpgZ26OaUFg/WhcLhW9IsYaH89TfVuEKX5pwWmivWYF20Op/bO//Wsh4t+3vjaGYXlF4bDoc+fNeqkWBHLzHSPqKyDuJA/IsTbiB8GU/5cEYlr9MuYBn9cCaYFj/Y/Jf/TP/S9seXA2WKfpKvMq7U2JnvbrePFZlxZrGge4mHoDaedkr8uLRjYW/XG/tHiLsCYd3U2xlA1NMlJ7MdQv77tX2oTDIRe33JgsLh+dPSjaxSwnBwtFvqKWwIrxG/mFFoIZTXE5uB6UYGdEbMCa3VAj4JdNL1y5Zvv7D/X5nCHgntytlVOT4ifNLc570gsCljORE3eBCIjqr7JOMvOu94mDjoGuvGvnt5/0dVfPy3m85KkOkPuzyjIO/GotF2TBm7OyXTfCLtI4eISnXnkts3Ysnbh5H4qfcZctLhs1+4arV99Ex/K9m+sLO2gEt/LNrr7zKsCls6+as1Ld266H4gb25uO0zTvMeedeN8ffjP8u16uvR/HooDVclV0jwWd/SiKEaFNFaXi613R/w0Rv7JZq/grm7p5qh4/bsVtOmPZGEOGvJRRm7dT+b1RFq/p2DrrpfqeePtDVSf+ePqAyNfXov6zOebo0sXFu/fVlJmeT2JZjSxZ9D9799f+VSW2W+Yd22d+9YWySY/GykH8QMA94gcCvq+Sp86+ixZPtnY6Djr7UDXuwKKyj0OhsNLjhdq2zbj9Xwsn3xDLrWDU4h6BYM32aG1Uc5KZNY0dbBN4dNOy0q/GymnYxPIRh4+EtJ8dSwFL9wix3F5nI1geutVw4lkgg8VfpW0+GNCr1JXGsWXeqUPWvhVzJ3ZUGjRJG1HAcrawwm+GuDPwJt0oqm80unHj1d7kmNQx0I2vE7t1M/1nFuw5lJb7/svFh1XWQXdOqh/Wm48t9mi22KPKz+aK9NcpYA2bOL/68JF6pb8ONuYm3qPai/eoAypOXrbRXROdApbpudbOXv70jxW9xT5QfjB/o7vu+EMnzFt1pKZhhK11G1TQaeWrVft+v6myeI6tmIkShwJWy5XS3Y+qx7ROXJWYOvHcuHBuGlP8AMb2Q9V10ru+Ny+vFXfQXKr8TYeCwvlnB8L1x/yISLRjq127jMdXz5t8ucpxp2Jrem5qbXzlMdNzT9z8/DilH+tSjtmYVDj41OYVJV+2ZaS6/wZPfr5XXfWhbSrjqsZsjKVroBs/Mo5sDJOYNuPK8jPdy0MnzK86UlN/eqR/u7yM2avnT75IZQ1V5maa0/CJ86qrjzQofxakgKW6Yi60M/1A6kIqn4cc2Pe43o8/eJ7Wz8u6mY9bsQeOnrtTPA2vm2l805Oa6Xh+7RevPZxM/qpvUE33gLiAj/za2ky/7gvdvEwMdPaASXzdOdho/6Pv9e/+tUtPU/qahsmcdMyazkd3LJ0Clm7sSF6m87CxRrFi6M5Fp4ClG9v0Q6TN+ZmulelcVda3XW769tULpvRSaZvobShgtVxB3XOHyl7UjalyEdita955S54cq31XgixfN3I1Pc4bV0eWs058lVg68VTOASpjNoSyxNf3Jyp/ff/MMeUnNTSEdqiMn5Odvn3dYvVzWu/Ciuy88IGYf5RS3ScqcxfPxJwjnok5TWUuzduIbymJr3GGL1Tpq5qzzmcbk5gqx7dKXBXb9u2zfrGybOKvVHyatxk+eX7pzr3VS3asvlT5D5QqOTk5vgpGLhwYSDv6qsp8KGCpKLnURnUjuDR8i7DJfudVyxOj2QNxVU48Xq1ZvMehgOV8BUzPA8m0D00MVOcfrz1qsjMe/dPI4kFndIr6jA6n5y9xfr9ZFD1nmOSluz5uFrB+9dPBv5g2safRBzaTuev00XVyu4B1cp/8SWUzixbpzCFW27GXPLfjo12HT9KJp3qcNo35znv7h5VcUblWZxzdtm3apO14dVmx9K4S3bh+ak8Bq+Vq6O5H2TEtnkn5ingm5RDddZfFNb0IlMXVnf/A8Yu7hGprYt41pBszmpUs72BDm06bXpy6V+YsixPpL+44+ZO44+T/yWKpvq4ypomRSly39knnDpk/XD53kvS5iSo5msy9qb3KGG45mOYuy1klrixGXm76gTULprRX3ac22slyMl2HprmddUHZt48eDd8ny5cClkzIxddVNoKLwx8T2q9fyXB7/oMvKH+v7miou8o4wqiDuADcr9I2VdrEqzigcvJPlDUwPQ+kuoHq/OO1R032X9k/xv7u5F55P1bpq7tvxPmrSJy/KlViN2+jO5abBSyTB8yazNmkj66T2wUs1WNEda5nXzD/HzVH62M+z6J5LNMcdC1V59C8XWZG2v5Xlhb77nlqpvOJdeFnuhY2cvEqhmzf6BrYjqdzYa6bayS27Xxl8cSPj9wpfnzkeqfrK76efEi8V+fGiqPiIcvXxgW27vujSt7R5j35sucu3f7+4adimXTKzx67onzCMhN/mZUs77PGzdt0tK6hwOmaqeQuy9V0XWVxZQat5W4jro0YKraqbUaVPDd4z/7DMX9d29RL95iKtd78CqHqihq2O2tc+cGjdSFf/MJfbtv0e9YunHKt4VQSvtu4S5Z89OGuI11am0j3rrkfLnpyXNeEn6gLE4hXccDWSdIFEu2QD859vd1dd76h/TyfrIy0gy8vLc7XHtCHHWRv1NFSVt0D8dqjJswUsORqFLDkRo0tVI8R1YgDRs+5NxgIXq3a3vSiojF+8ZUV529998ALOuOZtrVtZZqHzX7cgdVSU3edZe9NuvGaZuRGbNsxbceLtb9tjCWLkd4mWL9hWUmGm8dZ89h+2yON+cmsZHnL+ouvNk4SX220cgfwgHHlPYN1oZiPt5HlG23NZXMwiRkZx2ncs8aWHzlaH8pubZ9uDuaLH1or8vSH1mRzcvp+33yusvG4A8vmWUwjlmxhNEI5ajrgtA7rnvrr6GGOgiRB59bWo1ePdqXzHx1j/IsgSUATcwrxKg6Yvqn4dT1Mzwfirpo+4q6abV7PK/LwedOvo5l8iIjWR3UPxGuPmqwJBSy5GgUsuVFji3AgOKxqeYn0IcmqEUdduHDxnr1Hx6u2t/WB1vT8qJOnrVx1x3SzPQWslrqq7xtqF/nBSvFsnyLTNZTta91cbVw461xEpqUFazdWlLR6ka3rYsPDRox45N3amG7Ox2lsp/394OzWHJzGddpf11alvdc5mY7HHVgqq2nYZvik+XuqD9f74tfrTN4gDaft627iIre9uIV5X2OSnTtl7aicNeFkcZFe5+vE45xcvIoDybZvZSfqWMvstcWgseX76utD7cVf1/b/a9Hkk8QxUu10G5rMX3XeYo/2Esf2Nqc5etGfApZc+Tc3nnVbyYQeP5W39L6F7j52+yuEA/q1u/CpB8bMtSUhHixcIx4snKUTT/U4lcUUx3HPwmmLK3fvre0ja+vkdVv5OsnBVl8KWC0lddc31jEtnqPWXTxHTelHN6Ktqex8oZur1wUsk/xi7W1xfhkvzi+LW2ujMp4bprLjMdaYebltDq5ZMNX4Tnk35+M0ttP+Mtfmr7sxnhsxbRyHbuWla960vdc5ic/te8T7fqu1Eu7AcrKahn1lm8AwrHY3lTcD7aAJ3KHxwbHirpbrxEX53Qk8Fc9Sp4Blh9qpo1fH8i/v2HDF02XvPtJ01oMGdDjv0T+P1v61JJ03xmjKOnP2yzlXtltcfoh7UjwDK2Kos/Yyc5uv6+4ztwtYtq1052d7/Ma1OnfKgvcPHKpz5Wv9J52Q+9vFT4/7ic19Ea9YFLBayuueO2Lted1YiXZBPqBw9qBgOG29k4KS7t6P5a1y963sHOV0zaLNJ9aY7fOzf7iyfIL0YeitObk5H6exnfbX3RsjSxZ+snf/0c4296Nbc3AaN1b/vn3yX5gzs2iUrp/T9k7npDt+/7FLO6fXV3+iu97cgaUrrdj+jKJ5Q8KhhpcUm7vXLBio3VxZau3WX/cSJbKfBZwWXkzn5saHENNcbPWTvTnEGic/L+ODVfMnd7OVS7Q4wybOf+XwkfrB0V4Tv+qzT/yqj/FdpSZz19kDuvGP75y90k3L1mLfc+uIqwaelv+6yti6c/LrQ9zPvqD8cM3RUI7KnBvbiLkMFX9kiP/7aLOkdddEp4AlzrUXib9I/lPHKdJWWOUKq8O6/Zq3F+P3F+O/phtH5zjVjS1yyisonPvbE49re8FHnxzpp9tf94OxrfhexaGA1VJadz9SwKKAJTteY+2RcDA4vaqyZKYsRmuvy95TdPdz03Gcxo7Vv0e3vG0Lnxhr9W5ZMd6PRP632zxvOzVwa91i76nwNVWVF95ruqdM+7llFSsfk/MvBSzTFZb0+/aPVs9a+a9d01wKrxzWyUlPeRAaJr0ABSx7S3xGYfmF4XBotmnE5bMmfatz58y/mfaP1W/X7tpLxly06GlZ7Ll/Lzz1lFPavyVr1/x12RtjtHg65zDd+Dqxdedqq73unPxawBo6cd79R440fEvHJT097eiG54u1vsqmE9+0re6a6BSwIjnpxm+ch439HM+xddZDvCd9XRTaHtLp07ztC2WT7u3YPvMaJzH80JcCVstV0D0WTC6gVNdedkzp5qpyjtCJmWx3YJ3cI//ZskeLLlFdH9V2FLBaSnXvlvvuoifG9VY1VGlHAes/SuEgBayIA18hVDlqLLaRvWFZHKrVUOcO7jLkr3ePiPlTmF7kwRiJL0ABy+4a2jg/6HxAVcneJCfdHNwew+34Ko622+jOya8FLHEO6SoKDu+b+Ojus6ZjRPyEyWBxd9IGk7Gj9dFdE68KWONGdnvi7l8P/YrpPO//x5u//eODr/3YpL+TNTIZr2mfL3/3xZGb/717hUmceOZtkq/KfkyGOclsZMegrkEqF7D69l2QlX1SXU1r5rqWsrWLvB7TO7he/PLajJi/vBar/xdOzujyzEOTP1bJQ6cNBazoWrb3h+1jW7bfIq+bzsFprk776+xf1bZe51RQNHdKIBSYp3v+4Q4s1RXVbCfbAJrhjJqbHpBGg9EpqQUoYNldXuE5SFzMt/rMCdXRbPw6YeTrOSKXg6pjNm+nc54xOS+6HV8YthHFjZDp/Bv7CccOIs7nPxDhNF5jf10zvxawVD5ExjCrFvsgT9e0qV2H/MwnXiyfZFzcaTq27proFrAu+kbl1jff3t9bd76R9mL9p4t9OFO3r9Nzks5xqpubanvddXFy4aKakxftuAOrpbLufkzlApbs3KxrKdvz501Z9PP9h2p/2Vo7lfFirdeeQ2m5779c7Pjr1M3zo4AVfcVU1ku2J3TeX03Gk703mMSUHTcq7y9u5aXjrbPPVeakO/bAorL6UCjcRvd8QAFLV1qhvWxDKoRw3KR4Qo+rbr3xrAcdByIAAkKAApb9bTDt6xVPvLX1wJdtRDZ5Ntaky57f+t77h3rbGL/nSbnrFzw+7ixZLJNzo+4HCy/GiPWGr5uvbTM/F7B+/5eqpTOf3DJWNmfdDzLR2re2D4RPD1Hg2WGag8qH1uaxdQtYfYcvyM/OrtvvJEedfWhyzDTPTXU88V5SIArmm1TnJtbrHrFe16q0N5mHiJ8j4rd694nKuPFuQwGr5Qqo7sfGnhSw5oZj7WNdz1ixZMepylhurldruVPAii6jsl4650gb+yPWZ7RouZjOwWmuTvvruKq29Ton0/EoYKmuqEY72WJohDJuanowGg9Ix6QWoIDlzvK6ca4YMrDzvS9v3r1wc0Xp/M8/nEdu0RX/hg86/ttrX/m42PZsxEVgP3ERuEUW12S+uucykzEieXfunHPl8lnjj/nlRdl8Ti+aPzwtVL+mebusjLYdXl56gaMChMqFVbT8/FzAiuRruj6Ncx1+1vHlL6/f//0NlZO2RZv/hC8vWbDzgyOTYq3dmV/ocMtj943+P9n6tva67hx0C1g2nCIxhg467tG16z+5898rSqPe7Xn5d5b/+tXX9v3M1KFpP53jVNdPNbZu3Ej+FLBsrL73MWRrrbpnVM6zurGaa9jOVeX8oJuzGzmanj9VcqeApX7MOV1bWf+0NsH1G5eVSP+AqZJxwZh55wYaGmL+uI7K/vDiGLRxHIofJ1kXCAfObs3mhONzfvH8s+N/pWJnq41svSPjmKyB7fMBBSxbK94kjsriuzDs5yGLJ/Q67dYbB73p5hjETi0BCljurXe8zxdOZzZ1XI+Hb/v5WV9XiWMyV903ytOLygakhcKbVfKJ1qZbl5y1S54Zf06s/pGvC4q7SPbKxtDNPVo8XTO/F7DGfHFx5a6Pa0bL7Lx43XR9dNfEpIB17f/965dLX/jg51442BhDx1LXr3On7J3LZ0/oLstTN67tD+Ky/Nx6nTuwWsrq7EfZhahurObZyPalSXzbMWXxMjLSXlu/tPh0p3tYOk6b4JH1y0raysahgCUT+u/rMnPZ/hs0pmxBfUM45h+FZDFUs5XlanrOlsU1zd9GXBsxVH1V2vUd+fTx2WlZu2K1NfXSPTfGWm8KWCqrqdHG6S+MaQzValNbG8tGLsRIDgEKWO6t41e+vfxbG1/fd797I7gbWed8I3ujjpapTvzG/rLv1OuIjDrnhCW1R8NVmZmBf21DFwAAIABJREFU4S+s2XWuTt/P2o4Xc3jOoN+nXXTN/F7AEueSTFH8qzX1sN2vrj6Q/8bKUq1nwOmuiUkBy2TtbdvoxNM5TnX9GvOINYYbMXXmH8+2FLBa6uvsR9mxphtL9yLNJL5sv/slZlOLASMWdQpm1u6Odayo5k0BS/2MY2OvyGJEslFdu9YyH1hUfiQUCmXLZmYyjix/k5iy84aqiSw31TgyN53Xvchp9EVLfr5795FWn4Une9+ngKWzogptL7/6hfWvVu0ZpNDUlSbiS+zrqpaXDnMlOEFTVoAClrtLb+Mn4d3NMHp03Td9lTfF5iPpjtHY32Qstwx1nuOje/HTvL3fC1iRfON1PrFx4aTyobX5OKYFLJOx3NrDsrg6x+nDT79x0u/ufd34OWTF43s895sbB68ShdCbZHnJXtfJWxYrXq9TwGopr7uubhZEZO9FurmqnBfciBkZ1yTup6tTWJFeED5QJztGVOO7uV6t5RhrzHAwOL2qsmSmbH4msR25i8429p8sRuO8VNevucP5xQv/ue/A0YtU/EzGkOVvEtPWcXh+8YKyfQfqYj7aQ3xN87D4mmauik/zNmePn3d/XlbGXZXlE15X7S/zcrreo6Yu6bfn4BGlb4q1tjYUsFRXU7Gd6qIrhtNuJi5eThDPool56592UDqkvEC8LjhN31QSccHOnbLg/QOH6romSu4ma2NyfjQZJ2L4xJyt99xy18bv+8nTZC66ZolQwFL54Of1ul0wquu8u341TOn5cLprQgGr5WrqGrqxH8SxMk18XprjRmwvY1LAaqmte651syAi2+u6uaqcP01inl+6aNy+fbXSu4WPBtOOf7Oy+BPVPT5iysJLDh46+rSsfVZGWq+XlxZvl7WTzd9k7k7HTPYCViAwI61g9OAGFSddf9nx0XxM3fiy/RJ53SSmzbiqBrp5Diws2xMKhztGchVfA64WXwNW/jVnt3I6o2julnAocIrKXoq1NhSwVAUV26kuuGI47Wa6m1t7ADqkpAAFLG+W/a13Dn5v2vRlf/JmNPNRTM8zJudH07Eisxs0pnxXfUPoePOZ2u1pMhdds0QpYKl8+LOrHzuaztroromTApbfnFpT1PGLxBDvKdPEHVSzvFxjGxdC8cy3tbEpYLWU0d2PFLD+Y6hzbpMZdx/xdE6HzKzDqseMLF7TOG6ul+px1rRd8hew9PZGTnb6nnWLp3SOtfYjpix48OChum+o7o/Gdjr7pLGPbF+bxFQ5XlTjjr148dc++qRmpopFVmba+pefK4750PzzihcN2H+gNuqzYFVzkpnpvp8Om7JwwuFDRxepzLFpG+7A0hUzaC8+kPUXH8heM+hqpcvjfx45eeCATgutBCMIAk0EKGB5tx3OmbTghkOH627zbkT1kcQvomwSv4gyUL3HsS113xAjvVXfbFvLacxFS97YtfvIqaY52+pnOg9ds0QqYKl8ALTlHyuO7troronTApZfnGwaRmIVXbTk4493HznOizVuPkZaWvo5GyumrI3H2LbHpIDVUtTmMa0bq3k2svOFSXw3YjbmLYvd2v7NbZuxpfpwXV+T/a1rQAFLXVm2njr2slitZZWfl7Ev8pr4lkEH9cyjt9TJV3VPm8RUeV/WiWtqGwgEKyO55LVtM+DQ4XqlP9iq5mWaU2ZGm5rsrLQaN9ebO7CcHklN+psutK0UVDekrfGIkzoCFLC8X+t4n0+az/jcwV2G/PXuEa84kTCZk43zmsm4TubZvK+TOejmnmgFLJUPgTbXwsba6K6JjQJWvJ1ka2C6x3UtZXmovC6Okeniq4MzVdomQhsKWC1XSXc/ulkQke1x3VxVzgUmMRsVh01ceNnhI0cf92rv5+Vk9lmzaNI2nfHcXK/W8og1ZircgRVxGVA4/8RguP4DnbWy3dZkb7txDLpxHMrytGkpvlK4QHylcIosppc5RcuFO7BkK2Thdb8usoWpESLFBShgxWcDDLlg3jO1Rxu+GJ/R/zNqx/aZ61fMnThCXPA5/uU4k3OkyYeVaF7i64QrxdcJTX5F0Jg/Pz/z7VXlk4z+It04qK5ZIhawInMddeGi9/bsre1ujK3ZsU2btJ2vLis2Gk93TWwVsCJTHH3h4k2799YUaE5Xq3l6m+AD4mfTr9LpZHqciveWLHHneo3OWE7aDujX4WtPPTD6H05i+K0vBayWK6K7H90siMjOF7q5unHh3FxQ5LxX/G+O75aRHSv5eZl/XTV/0rdl7aLkJ36zKvo/E0+V8Slg/Ufp/JJFD+/bX3uliplJm/x2mTMOHDw6w+b6unEMunUcynI1MY3WR/U4GV6y9ITq/dUf2hpXNw4FLF0xg/ZebTqbB7XBNOmSggIUsOK76PE6t4hiSEdRuPr01m8b/0zmofomq5Kfl/tY2F0n7O5WyStWG12zRC1gRQy+f+O6gmUr39/k1EzW34mRyofW5uPbLGBFYot9PFEUfVx5XEDkeBswes69wUDwaplj09edHqe6+1wnt8a2ts9nJjm40YcCVktV3f1IAaul4cjiBc/vPVA3xo09+2nMtOCXNleUSB/uHm18N9ertflSwPqvzOhpi27Zvaf2Rjf2xqFgqGNeOC1SQI36T/fYVnnPNokZz7hO3XXn23f4gvzs7Lr9TseN1j+Si8nxzFcILa6GFx/AWku3ffus3SvLJsblWRIWCQnlUwEvL/xtXhT5lNMoLbEGw4ZPnv/E4cMNJxsFUOyUnd3m4LpFU74mii+zFbsoNzM5R+q+0cqSEY7Bc6cu3CweHnq6rK3J6+3yMv69ev7kASZ9dT+oR2vvpDijuz6RZ56sXTi5n625NsYZNLZ8WX19qMh23MjarJo36SyndxPqOtkuYDW6DJ80v6r6cL2VfZyenlax4fniTy9W41HAioz7retXX7fqpV132l73nOw2q/+1aEqR03W3nZeteBSwWkrqvm+YXECprp/sfKGba2RcN2JGm0+3IeVtO+WFqlXnqtrOZM5NY7u5Xq3NgQJWM5nCivSC8IE61TWXtUtLCx7cWFGS37twdodUL2BFrMQfqerE59V0mZvu606OPdl5xzQXk+OZApaudoz2thdWJzVx0dJHfDjbptOHtgioClDAUpXypt0v73z1lqfnbrP6168z+neoeOL+0e79tVXhQ3c0PSdvtrLVsHnOtnXHVfOcdXNMhgJWo8GFX1u2eMu2g+Nl6yh7XZjcI94fr5W1U31dd03cKmA15qubT/N5Nj/G4lXAasxLvN/0Fh/et6quR2vtHrt31N1nFnS8zmkcv/engNVyhXTfN0wuoFT3hez41M01Mq4bMWPNRzaeqkV+u4x3Vs2bfIpq+9baubleJmOmyjOwotnY2BtZGW07vLz0gk/v8KGAdYxy5O6kkNPjJdI/Jyv7vHVLJqxyGqvwosWbPtnt7DEG7fMzr1pZPulBlc8wfIXQ6Yop9LdxECsME7WJyRug6Vj0Sz0BClj+XfMBo8uGjju/6/DnX3z/jzpZTh7Xfcb8pTsXVC0vWafTL1nbXvXDVVeuefnjh1XnVzqh5+/nLH7vafxUxZy1i+zzPj1zH9q2/ZD07raBAzq+mZOVfvO6qoNzNy6ZYP3uAWczcbd3ydcrJr6z9UDMrxdG9u6z87f/8o2VpQfdzcZ59Mi6t8tNf+5QdV17WbRLS3oveGnTnj+WzSzS/qluWWw/v04Bq+Xq6H4mdrMgIrs20M01Mls3Yqrs8TOLylY3hMLnqLRt2kZcsD4gLlj/R7dfa+3dXC+TMVO5gNXoNXhM+Ut1DaEhOmssftn6dvHL1jc07UMBK7qg7JhvzT0tLSx+cfdC67+4e+aYsvKGhvBUnfUOBgNrNlWWjmjex+R45g4sHXlJW9PNZSMFkzdAG+MSIzUEKGClxjozSwQQQACBxBJIxQJWYq1QcmZbWPzcOZ8cOLy6tdl165R9wpLZE3Yl5+yZVSwB8RiAy8VjAB6N1iY7K+OSl5ZMfhZBcwFxzv+R6H17tAjiDz4HPjh8tNe2ymnWnl8ry7Tkioq+77x34K1W2v1Y1Ch+J4uh+zoFLF2xGO0pYFnEJJSvBChg+Wo5SAYBBBBAAIFPBShgsREQQAABBFJJgAKWpdWO1wV+JP1TT27/+qyHCr9gaSqEQaCFQLz2N3cWshkRQAABBBBoXYACFrsDAQQQQCCVBChgWVptcYF/rXjo6F2WwmmF6Xdy+ydmP1T4Fa1ONEZAQ4AClgYWTRFAAAEEEPBIgAKWR9AMgwACCCDgCwEKWJaWQVzgzxAFrJsshdMK4/ThgVqD0TglBShgpeSyM2kEEEAAAZ8LUMDy+QKRHgIIIICAVQEKWJY44/n8KwpYlhaRMK0KUMBicyCAAAIIIOA/AQpY/lsTMkIAAQQQcE+AApYlWwpYliAJ40sBCli+XBaSQgABBBBIcQEKWCm+AZg+AgggkGICFLAsLXg8C1ibKktygsFgjaWpEAaBFgIUsNgUCCCAAAII+E+AApb/1oSMEEAAAQTcE6CAZcmWApYlSML4UoACli+XhaQQQAABBFJcgAJWim8Apo8AAgikmAAFLEsLTgHLEiRhfClAAcuXy0JSCCCAAAIpLkABK8U3ANNHAAEEUkyAApalBY9nAYuHuFtaRMK0KkABi82BAAIIIICA/wQoYPlvTcgIAQQQQMA9AQpYlmwpYFmCJIwvBShg+XJZSAoBBBBAIMUFKGCl+AZg+ggggECKCVDAsrTg4gJ/xhmFZTdZCqcVhjuwtLhobCBAAcsAjS4IIIAAAgi4LEABy2VgwiOAAAII+EqAApal5YhnAat715xbFz05/kZLUyEMAi0EKGCxKRBAAAEEEPCfAAUs/60JGSGAAAIIuCdAAcuSbbwu8CPpn3py+9dnPVT4BUtTIQwCFLDYAwgggAACCCSAAAWsBFgkUkQAAQQQsCZAAcsaZSAQz+dgbV5e6ngtLVIQKskE4lWgZV8n2UZiOggggAACVgUoYFnlJBgCCCCAgM8FHBc94lG0yW2bsWXtwsn9/GYbD4tGAy70/bYbkisfCljJtZ7MBgEEEEAgOQQoYCXHOjILBBBAAAE1AQpYak5KrShgKTHRKAEFKGAl4KKRsjWBAYWzBzUGq6qctsFaYJ8Eajq/1lJKxnn7hJ80EHAkQAHLER+dEUAAAQQSTIAClsUFo4BlEZNQvhKggOWr5SAZjwRindOT6a5XlfeuZJqvR9uHYRDwRIAClifMDIIAAggg4BMBClgWF0LlIsDicMeE6twpe+fy2RO6uxWfuKktQAErtdc/1Wbft+8fsrJP6lUjm3eyFHVU3ruSZa6yNeV1BBJNgAJWoq0Y+SKAAAIIOBGggOVEr1lflYsAi8O1CMUFhpu6qR2bApZ76//dH6+97YW1H94gG8Ht41vl/LWpsuSnwWDwNlmurb0u9tGMMwrLborVf9zIrr+6+9fDfmE6ho1+KhaRccKB8J+rll/4PRtjxjOGynzd3n/xnD9jI5DIAhSwEnn1yB0BBBBAQFeAApauWIz2KhcBFoejgOUmJrGPEaCA5d6GoIB1rG28C1hir58qimxvqK54MhR2VN67kmGeqmtKOwQSSYACViKtFrkigAACCDgVoIDlVLBJf5WLAIvDUcByE5PYFLA82gMUsPxVwBoweu6/xBvjUNXlT4bCjsp7VzLMU3VNaYdAIglQwEqk1SJXBBBAAAGnAhSwnAo26S/+cj9Y/OX+FYshtULdd/u5Q88ffvxLWp1ojICCAHdgKSAZNqGARQHLcOtY60YByxolgRDwXIAClufkDIgAAgggEEcBCliW8VUuBCwPeUw4/krupm7qxqaA5d7aU8DyVwFL7PVi8YeIMtUVT4Zzrsr7VjLMU3VNaYdAIglQwEqk1SJXBBBAAAGnAhSwnAo2669yIWB5yGPCiYcs54mHLFe7OQaxU0+AApZ7a04By18FrEg2qufx7Mz0R156bsqV7u0ObyKrzJcCljdrwSgI6ApQwNIVoz0CCCCAQCILUMCyvHqXfWfFm5te29vPcljlcOFAYF3V8tJhyh1oiICCAAUsBSTDJhSw/FfAevjpN0763b2v75AtabIUdShgyVaa1xHwrwAFLP+uDZkhgAACCNgXoIBl2fSMwvILw+HQbMthtcIly0WV1qRp7KoABSz3eClg+a+AFclo7MVLv/bRJ9UzW1v5ZDrPUsBy7/gmMgJuC1DAcluY+AgggAACfhKggOXCaqhcDLgw7Ocha0IZXba8MPljN8cgdmoJUMByb70pYPmzgNWYldj714pnYt3V+N/F17Q7iq9p73NvR3gfWeU9K5kKdt4LMyIC7glQwHLPlsgIIIAAAv4ToIDlwpqoXAy4MOwxIbnYcFs4teJTwHJvvSlg+buA5d7K+yeyynsW7yn+WS8yQaCpAAUs9gMCCCCAQCoJUMByYbVVLgZcGPaYkIUjThz7p9uGL3N7HOKnhgAFLPfWmQIWBSz3dpdaZJX3LApYapa0QsBrAQpYXoszHgIIIIBAPAUoYLmgLy72O4ivnOx1IbRWSC44tLhoHEOAApZ724MCFgUs93aXWmQKWGpOtELAjwIUsPy4KuSEAAIIIOCWAAUsl2RVLghcGvrzsPXBUJ/XK6dtc3sc4ie/AAUs99aYAhYFLPd2l1pklfcr/iCiZkkrBLwWoIDltTjjIYAAAgjEU4AClkv6//PDVXNWv/xxqUvhlcNy0aFMRcMYAhSw3NseFLAoYLm3u9QiU8BSc6IVAn4UoIDlx1UhJwQQQAABtwQoYLkkO2BM+bBgQ2itS+GVw4oFPrJpeWlb5Q4p0rDxA1/ppF4jb/nJoBdTZNrG06SAZUwn7UgBiwKWdJO43IAClsvAhEfARQEKWC7iEhoBBBBAwHcCFLBcXBKViwIXh/88NHdhNVMecn9GQd6JR5v+rxjF3okUsNw7UilgUcByb3epRVZ5r+IcqWZJKwS8FqCA5bU44yGAAAIIxFOAApaL+kMnzN9/pKY+38UhlENz8fEfKlGIyRAP2D+meNWIuKmypE8wGNymjJpCDSlgubfYFLAoYLm3u9QiU8BSc6IVAn4UoIDlx1UhJwQQQAABtwQoYLkl+1lclQsDl1P4NPyA0zrOeeqvo6Z5MZafx5CthyhiXSeKWHf7eQ7xyI0ClnvqFLAoYLm3u9Qiy86LkSj8EUTNklYIeC1AActrccZDAAEEEIinAAUsl/UHjyk7XNcQznF5GKXw7XIzb129YNKNSo2TsNGUy59/+d0dh86STS0vL+PD1fMmdReFrAZZ21R5nQKWeytNAYsCVqOAOM5yxB2i1/TpmXfJ1u2Hhjbfdb27t6vatuPgw6LQ/pA4P31ia1c6LWCJvDNF3j/oeVLeyCNH6od9vKfmhKa5de+a+2FaWmD99p3VFSL3v4jcD9nK3VYcMYc8MYfvtjaHyDi9urfb8O6Og4+LOTwi5vChrbFtxmncQ5F5bN95qLjFHuqR+9a296r/dlrfDkv/+eDo9TbHJlZ8BChgxcedURFAAAEE4iNAAcsDd5WLAw/S+HQI8cG7nR8vHtye/8DCsjdD4XA/nXGE1SRhtUinT7K2pYDl3spSwPJnAUvlvG3rriRxfH1dFE8e0t1lZ/TvUPHE/aPH6PZr3t50riLvviLvt0zGTwsG6jZWlmaa9LXZR2Xuscbzy1fPv/PjNRteXPvRmSY2re1jmU2fnu3+Wf7ImC+ajEkfewIUsOxZEgkBBBBAwP8CFLA8WCPZh0APUjhmCPGBu6MozOzzetx4jefUX3h19etf270ypYDlnjQFrNQtYDk9NzWVc1JMU8mjafxzJs1fcOhw/SRbR4WT3E1yEOezDqLwttekb6w+cZhHbzGPrbbmId7rBov3ug2N8WT7ggKWLXlncShgOfOjNwIIIIBAYglQwPJgveJ18R9rat06ZZ+wZPaEXR5MP65DDBw9d2coEOjmNImC0zuPevIv57/gNE6i9o/XHvb6gjAe60MBKzULWLLigMleND1eVHJpjK3S1iT3/id3OO/Zh0avMumr02fYhHmbDtc0FOj00WkbSgsW/LuipEqnj0nbPzzw7wf/+shb3zDpG6vPaafkX/DPvxctjbSRrTUFLNv6ZvEoYJm50QsBBBBAIDEFKGB5tG6yD4IepXHMMMl+J5Yb5qYXiPFYX5tjUsCyqXlsLApYqVXAEsdSlrhrpsatHWVyjlI5V0biqrRzOi+T/FXGFO59hPs7Km2dtnn8vlEPDfxCR+vFpca83F6Htjnp//7XoikDZONQwHK6U+z0p4Blx5EoCCCAAAKJIUABy6N1KhhdVhEIhAs9Gk55mM3La9MDgUuT7mHlF32j4sU33z5wnjKERsNDwfycbZVFrl2AaqTiWVMKWO5RU8BKrQKWrChgY6fpFoFUcrr+O6c/fsd9//6KjfxkMXTzl8WLvK4yR5U4qm2CaYG3N1WU9lVtr9KuYNScHoFgcLtKW6dt+vdtN+71LQc/vROrtX8UsJwq2+lPAcuOI1EQQAABBBJDgAKWh+vk9Qdo1amJO7FuEs+9+KVqez+3E4WWNPFXdtcLcmnB4N6NlSWd/GxhMzcKWDY1j41FAetYj3Eju/7q7l8P+4V74mqRVc7XuoUW8WMSe8SPSXRUy8C8VTiY3rWqcoryr+SpzNU8G7OeuraxRonf/IJ7Ni8v6Wwm0LJX/OYRfQYUsGytrLM4FLCc+dEbAQQQQCCxBChgebheb7+9v1/pNyrf9HBI5aFGDu1y/V9+P+JO5Q4+bPita1eftWr9rpe9TK0+GOrzeuW0bV6OGY+xKGC5p04BK3UKWF4WIHQKQF7mpXokjTjruMv+dtd5T6q2b61d3OcWDuzavKL0hISfR5QJUMByuqp2+lPAsuNIFAQQQACBxBCggOXxOo0sWfjJ3v1Hrf1F1nb6Ohc9tsd2Ei+eFyniDrabxR1sM5zk7/e+FLDcWyEKWKlRwBpQOHtQMJy2XraTCvp3mP3k/aMvitZuwICqzOBxW2plMSKv65zLbZ8/H7t31N2RHC7/3oprVXJtrY04t44Q59Y1pjFsz8s0j8EFXc555N4Ra037X/fzf5U/t+KDqab9I/1srUnTHChgOVkRe30pYNmzJBICCCCAgP8FKGB5vEaiEHCi+IrbBx4PqzVcj265Ly58YtxIrU5xalxQOHdGIBy4KU7DHzPszDuG5p59drfDfsjFdg4UsGyL/jceBaxjbZP1K4SF0xZ/+Mmemph34oiCzSWiYPOsbLedUVT2bjgU7hmrnYg1UsR6URYr8rrTQs+Y87v+/g+3DPtRrLHGXfrcvA8/OjxFJZ/GNuI5UiHxHKk2On0a2xZf8fxZW987pHVHbnp62tb1S6cOFG6HWhtTnAuvGTy2/Pb6hnCOTl46BcWmccV4x4nPDB/rjJWT3WaveAj7L8Q8/hRjHnkFhWVrxIfAATqxm7algGUqZ7cfBSy7nkRDAAEEEPC3AAWsOKzP8jUf3fu9G9ZcHYehtYYUF0DTxAfgOVqdPGosPtR3EB/q93o0nPIw4gKoYsPzxWOUOyRIQwpY7i0UBaxjbZO1gKVSJNIpctiMpxIr2hFwy8/O+mrp+B6P6hwdDzz25qi7//ractU+U8Z0m/zbm4YuVG3f2E53Tjr2kTH6jlxwfHZa3S6NvKrFGHka7T9tqjuP4gm9Trv1xkFajyq45sa1v65c+eHPdHOjgKUr5k57CljuuBIVAQQQQMCfAhSw4rQuZ4ye2xAOBNLiNLzWsO3a5YxbPW/881qdXGr8m99v7P/kvK0bQ+FAhktDOA7bvWvuhwufGNtLFP+OOg7mkwAUsNxbCApYx9qmagFryMDO9z78x/OvUd1pQ8bNOyJr+/LSqUp3CekWScSPWNTvqa3J37H6UmkO0XIU55Nu4g8QO2X5N76uW1ya/JXny7bvPFSsEn9C0UnfvWPG2feptG3eRsyjnZjHAdW+uvMYVLiwd3346Fa34jeNK+ZSIuYyV3WsSDsKWDpa7rWlgOWeLZERQAABBPwnQAErTmtyx1+qBj/05JZX4jS80bDijqyhoijzklFnh53Eh+sLxYfr2Q7DeNpdePURXts8HdSlwShguQQrwlLAOtY2VQtYw886ruLBu86Ly92bugUs3UJMtKOnsLAi75PwgYMqR5bO1yEj8VTn883L+l5y3XcGSL+yGSvHIUNeyqjN26n0xwoxj8HiPWGDypx15hFpa2NNAoUV6QXhA3Wq+VHAUpVytx0FLHd9iY4AAggg4C8BClhxXI8ziubWhkOBzDimYDT0Kb3zl86ZWVgiPogb/fVdddChk+cP6tUt9w+vv7U/IZ7H1XxewWCgdlNlabbqfP3cjgKWe6tDAYsCVqOAlSKEwVZVLfhYK5R8lqM4r0wRf5iYp5Cy8tfvCkYt7hEI1myXxWyfn7FzZfnk7rJ2Kq+LebQX89in0lZnjVXXRSemLEcxl5+Iudwqaxd5nQKWipL7bShguW/MCAgggAAC/hGggBXntVD9gBrnNGMOb/NZWeLD8wzx4dkXD2V3am7zosJpLk77U8ByKth6fwpYqVHA+vlt6388e+H238p2UjzOG6rvQ+FAcGbV8pLpsjnovK46tqrLxdMr7n7jnQM/kOWgGk8Wp/H1r35v9fD1m3dJfzFRdVzVu47F+2+R+GNSpWqeKu3GfHHJx7s+PnKcrC0FLJmQN69TwPLGmVEQQAABBPwhQAHLB+ug+gHeB6kapyA+ZN8c6ZwsxSkZhOpFiiyOX16ngOXeSlDASo0CVt/hC/Kzs+v2q+4kcc7MFIUJ5a9zqcaN1k71PciN85rqD3Kojq0yF7e+3q04dluVu5dVYkXWUtVFZ3+INckT79XSr3dSwNJRda8tBSz3bImMAAIIIOA/AQpYPliTq65b9ZM1r3ysdMu+D9IlBYnAA3eMGHnO2V2Ufr4+UTApYLm3UhTYxwD5AAAfnklEQVSwUqOAFZmlalGiqcjj94166Iz+Hf6fKHpUu7ULVfNyo1ii6qI6tspcVGPpeheMmvtRIBjoEqtfOBicXlVZMlMWW2UeGRlpC9YvLZ4ii2Xyusr4FLBMZO33oYBl35SICCCAAAL+FaCA5ZO1Ufmw6JNUSSOGQFpa8KWNFSVDkw2JApZ7K0oBK3UKWOI4OkHc2fKhg90kfrw2cETcQXSnKGj93EGcY7qqvP+IMcWPDwYj41v/N/Gypdt2vF/dK1Zg1a/KyeaSk92met3iqXnWJyECivXtKNZ3T6zYp53Sft0//144TDa+bB6R/sLkFLEm78himbx+0fTK1958Z3//WH0pYJnI2u9DAcu+KRERQAABBPwrQAHLR2uj8oHVR+mSShQBt/6yH29sCljurQAFrGNtk/VXCBtnOeaixW/u2l3Tz9aOOndwlyF/vXuEo1+0VXnvcfPcdss9G7/yxKytj0kKWDeLYs0MmZtsLh3yM5e/WD6pUBbH9HXZ+N1ObPvRkqcuOFEWXxYn0t/NNRHn/N6iGLeVApZspeL/OgWs+K8BGSCAAAIIeCdAAcs7a6WRVD60KgWikecCm5evbxMIzAh5PrAHA1LAcg+ZAlZqFbAis53y1WVb3t1+8BSbu0rcjfNdUeC5zySmyvuOm8WSL4wq79cmGHpTlrtKDrK5uPEg+qZ5y8ZXLTzZiiMzjfW6LAfuwHKia68vBSx7lkRCAAEEEPC/AAUsn62R6gNtfZZ2yqcjLh4Hi4vHDckKQQHLvZWlgJV6BazIjM+bsmDW/kN102zurBO75Oxc+sz47roxZYUK1aKL7riN7W0VsFTOUxSw1FdJti8oYKlbutmSApabusRGAAEEEPCbAAUsv63Ip/k83aZgdFa9L1MjqRYCKncFJDqbyoWhG3NMBduCwvLCQDhUIfNz20J2sRrJTxRqfyoKtbfJcm3tdbGPZsh+iTTZv0LY3GZk6cJ/7N139KumptH66e4VlbXXjakzH1sFrMiYsrlQwFJfGZklBSx1SzdbUsByU5fYCCCAAAJ+E6CA5bcV+SwfcaH3dXGh95BP0yOtzwTEBf094oL+2mQHoYDl3gonWAFrqtjv8001KGC1LicrFuia6xScVMbWiaebq5fPwMprm75wzcIpk3VzVG1vy9JWHNW8m7dTuRucApaprt1+FLDsehINAQQQQMDfAhSwfLw+A0aXPRQMhL/u4xRTO7Vw4OLNK0pnpQICBSz3Vrlv3wVZ2SfV1chGcLOAEBnbiwtmCliyVf7P6/0LZ/fODKRtCYUD4rl65v9U94wXax9rFirj2/oVwkgeqi668mJ/ny7+8FQVq1+/k9s/Mfuhwq/IYiuajBAF5TWyWCavq4xPActE1n4fClj2TYmIAAIIIOBfAQpY/l2bTzMTH4i/KD4QP+PzNFMvvXBglyhenZAqE6eA5e5Kq1wsZmelj39pyZTn3MhErG+BOM9sksV2euFPAUsmHP114falM4rK7g2EA511Iqiul8r+O7l3/ltlDxedqjO+aluV8W3ORTWWav6N7cQ8don///hY/cLB4PSqypKZstgqJllZbZ57ecnU8bJYJq+rjE8By0TWfh8KWPZNiYgAAggg4F8BClj+XZvPM7vj3tfOfejpN1cmQKopkeKhYH7Otsoi6R0zyYRBAcvd1VS5WIxk4OKFd1hlhk7Hp4Clohy7jerzoiJRGsJpp762ovgt2ajx3H+qX5dX3XsqcxF3c00Tdy7Nkbnovq4y9hln5x//xB1Fn8hiq8Ry65wg1uREUdD+QJYjBSyZkDevU8DyxplREEAAAQT8IUAByx/rIM1CfKAcJD5Qrpc2pIGrAm5d+LiatIXgFLAsIMYIoXqx2qd77k3lj437pc1sxl68dOBHn1S/Kov5s+sG/uGyC/v8QNYu1usUsJzoHdtXZc+c0qvd2rn/GHOObFSVWJEYp/TucM3ch0ffK4un87rq2KoFrEuvWv7wv9/ad6UsB9V4sjiNr6sWFlXHFcfKteI9/y7Z+G6cE0ZMnr/mYHX9cOnYPdv9s/yRMV+UteN1dwUoYLnrS3QEEEAAAX8JUMDy13rEzEZ8oE0XH2jrEijlpEpV9cIjqSb92WQoYLm7qioPTG7MwPY+tF1AoIDl7l5pGl1l7VT2i0ocN/af2Pe9xXvaVpmY+KByZNPy0raydo2vq8wnPT2tYsPzxWNUY8raqYwZiaGyHjrz0I0pm4fOuYg7sGSa3rxOAcsbZ0ZBAAEEEPCHAAUsf6yDVhaqH5S1gtI4poDORUcyUlLAcn9VdY5rW/vR6zFT9Q4smbPpeqp4qsSW5dd896vEVDliVMcVd75eLb7y9xeVmJE2qnHjMA+try6qzqN3z7yqeY+MLVD1idVOdcxIDApYNsSdx6CA5dyQCAgggAACiSNAAStx1uqYTHU+ZCboFH2Ttq2LHN9MyCARClgGaJpdzhxbtrqhPiz9uldjWKf7UuccIgoI00UBYabmlFo0Vym4jBvZ9Vd3/3rYL5yO5bS/io/qGtiM1XReKselSo4q+TX3VIlrq1CiO5bqc7Ui+enGbj4nHTvdsQqK5k4JhALzVPeybnwnc4n0pYClujLutqOA5a4v0RFAAAEE/CVAActf66GVzXlTFv18/6Faq8/D0UogyRt3aJdd8uK8CeVJPk2l6alcKCsF0mzk9IJMc7i4NhfGQfF1qpBOEu3bZSxbOW/yWJ0+E760dOXOD6vP1eljax0oYLWubmKsUjxRiasSJ1rmorA5VRQ25+vspamXP//Mth2HlJ+bdOrJeUNmPTT2FZ0xIm215hQM7N5cWXqczhhiL+eL43W/ap+Te7fbUPbwmMGq7Rvbac1DdBJrMkGsyRKdcW6559VfPzFr2890+kTaUsDSFXOnPQUsd1yJigACCCDgTwEKWP5cF62sdD/gagVP0cYqF32pREMBy5vVXvPSrvOvun71C7qjXf/dAZdN/3LfJ2P1u/3PVSP/8dSWFbqx6+oDJ72xsvR93X7R2qdqAUv1jiDd847KuV8lpkqcWOuvskdu+OUrZ85//r0NuvtIJf9oMXXvXorE+P5Vp5V+66v9y2LleNp5c7v16ZFbseOD6lN15mI6D9XnhDXPRWVNInPJSA/s1JlH07YUsEzl7PajgGXXk2gIIIAAAv4WoIDl7/VRzm74pPl3Vx+ud/QLYcqDJXPDYOBm8Zf4Gck8RZO5UcAyUTPrc9a4su1H68I9zHoHAjnZbfaGwoHaSH9xJ0a7mpr6XNNY3bvmfrjoyXFdTfs376dSwLI1VmtxVAsJKkUd1ViRXFTiRdqJO2jaiXU7FMuh9GsVv3572wHpHTOnntxR3L00Snr3kmpusrXJymrzYU1tw+6m7XIy25xQc7RB6+6mxv7Cooew2CEbt7XXTeeVk9Wm5nBtw9tN42ZntelcW9twokkuo88/rve9t5z3rknfSJ9RpYsW7dlXO8Gkf1Zm2q6ao6GPm/Ztm53e40hNfb5JvKZ9KGA5FbTTnwKWHUeiIIAAAggkhgAFrMRYJ6UsdX49SClgijXSuRhNMZoABSxvV9z0wtt2lraPiVQuYN32h81/evSfb39PdY3+due537rs+hefadr+9G75q7fvPNRfNYbq+vllvzWd160/G3xH8fie/6s6V9tFLKfjft7f4OuJ0cb24xpRwLK2SxwFooDliI/OCCCAAAIJJkABK8EWTCXdoRPn3X/kSMO3VNrS5lOB34kLvR9j0boABSxvd4fwzhDP1znq7ajHjibufskQd7/U28whlQtYEUevixCJXMBSzV22PweOKusTCobfkbVz4/UTj89+femzE75gI7Y4dtqLc8I+G7FsxaCAZUvSWRwKWM786I0AAgggkFgCFLASa720svX6YkkrOZ80tnWR5JPpuJYGBSzXaFsNLMyzxAVrjfcjO/9lttZyTvUClpfHkc65zW/vFTq5qxwf8bg7OfJV3nWLp3ZSyU+1jZjHGHFOeF61vZN2D9w54htX/XD132PFoIDlRNheXwpY9iyJhAACCCDgfwEKWP5fI0cZioe0thMPaT3gKEiSdf5/3/zC7d++8tQbkmxark7HywvvphOxfSHrKpJLwb0uLrhpnuoFrMgWGTB6zmPBQPArLm2XT8NuXl6bHghc2qA6hsoei+yLc6cseP/AoTprz0SLlp9b+69g1Jwe4qFw21VNnLSbXNTt27fPGPpXJzFa7xsOFozW+7VS3TzCgcCLVctLR8r2BQUsXVl32lPAcseVqAgggAAC/hSggOXPdbGelbhw7DmwsOx18cE0x3rwxAlYLS6O8hInXf9kSgErvmtx9Q1rZ61Y8+E0N7PodVLeT+Y/Pva3bo5BAes/usLhK+JOmsdcsA7//3buN0Szqo4D+M4StLEsFEH/1rGhWrLdFQt8YSA5jlqbmZoplGRYCMKGUJAVBbnWRm8CexX0ohfSFkWazOJmtZVrUVa0mJsTVIilsmKBJbH+oXC6Ay3JYzP33j33d557zvN5Pef5nnM+v+us8515nuatny9r3vr5ZJ/stqJiLetksXTm4vIzq6ubXtwnv8vahflt37jzwNIHuqxNWbN78eDTzQC2pGRs9NrG/5LG/1BU/sncM89bfiri3/ODty59/nUL2z67tk/bc6HAip5yt3wFVjcnqwgQIECgDgEFVh1z7HWLT+0/+t07Dz8a+sNwrwMFL77o3FdefssXzlkO3qbqeAXWOMZ7zQ0/u+u+Y0/sGfI0m+c2PXnsyGUvHTJzvSwF1v9kdi0eetXc6r8fG8p974fO+P7ea9/4zlPJaysq1jKf/5dRn9l//znLh/9876nsNfma+e1b/3LXNy9cGCKra8bO8w/u2vzc6gNd13dZd93VO7780et3fqzL2qHWvPfae3b84aF//HGovOc2z+3+/d2XrpzMa3suFFhDyaflKLDS/LyaAAECBMoSUGCVNa9BT/vzX//t69ff+Ivw33gPeugeYc1vws9vfhN+pMdLLF1HQIE1rkej7QfLLqfdsuVFJ37zg3dl/YtEBdYLJ9OY7G7+Gut3XWa23prUD9zv8jz9v7f2XXDV4Ucf/+tT20/17P/9a7GpfTB5Y7/Q2D90quc/+bqotz12PVfqf1fNHG5u/q3cN7lf23OhwOo6odh1CqxYX+kECBAgMC4BBda45jGl08R/pkaui115ycLN+2486wX/I55r/1r3UWCNc7JvWjr02ne/7RXv+N7dx7/a5YRnvGHbhbd9bSnLh0Cvd55di3e8uctZI9Zs+ef8ytGjZ/+rS3bbOVeOvOe3XXL6rNn7iV9e+dNfPf6dttd88KrX337rbX/aP9QZ2u66dp6N9lp7/TVX7LjuwO0PfmSjs1980Wk/PvSjhz8+1LnbnPp8fe0OZ+18+VeOrfz9rW2vu+Li0z/9uU++5Ytt66bx9bV7zK1uvq9t7y7fC1qfi2df8vDKvXueaNvL12MFFFixvtIJECBAYFwCCqxxzWPqp2mKisub30jfMfWD9DjAl246+9t7lra/r8dLLO0poMDqCWY5AQIECBDIIKDAyoBsCwIECBAYjYACazSjGOdBhnqLxZC3a97u8P7m7Q7fGjJT1sYCCixPCAECBAgQIECAAAECBAhMU0CBNU39Avc+fvzp099+9Q8/PP/qrRc8cvzEuZFXmH/N1gcfeezEgeZDpp+9/yeX3tKUVs9E7id7fQEFlqeDAAECBAgQIECAAAECBKYpoMCapn6Fe68VHc21Fpu3Id7U5XprHx7brDviw9a7aE1vjQJrevZ2JkCAAAECBAgQIECAAIFNmxRYngICBFoFFFitRBYQIECAAAECBAgQIECAQKCAAisQVzSBWgQUWLVM0j0IECBAgAABAgQIECBQpoACq8y5OTWBrAIKrKzcNiNAgAABAgQIECBAgACBCQEFlkeCAIFWAQVWK5EFBAgQIECAAAECBAgQIBAooMAKxBVNoBYBBVYtk3QPAgQIECBAgAABAgQIlCmgwCpzbk5NIKuAAisrt80IECBAgAABAgQIECBAYEJAgeWRIECgVUCB1UpkAQECBAgQIECAAAECBAgECiiwAnFFE6hFQIFVyyTdgwABAgQIECBAgAABAmUKKLDKnJtTE8gqoMDKym0zAgQIECBAgAABAgQIEJgQUGB5JAgQaBVQYLUSWUCAAAECBAgQIECAAAECgQIKrEBc0QRqEVBg1TJJ9yBAgAABAgQIECBAgECZAgqsMufm1ASyCiiwsnLbjAABAgQIECBAgAABAgQmBBRYHgkCBFoFFFitRBYQIECAAAECBAgQIECAQKCAAisQVzSBWgQUWLVM0j0IECBAgAABAgQIECBQpoACq8y5OTWBrAIKrKzcNiNAgAABAgQIECBAgACBCQEFlkeCAIFWAQVWK5EFBAgQIECAAAECBAgQIBAooMAKxBVNoBYBBVYtk3QPAgQIECBAgAABAgQIlCmgwCpzbk5NIKuAAisrt80IECBAgAABAgQIECBAYEJAgeWRIECgVUCB1UpkAQECBAgQIECAAAECBAgECiiwAnFFE6hFQIFVyyTdgwABAgQIECBAgAABAmUKKLDKnJtTE8gqoMDKym0zAgQIECBAgAABAgQIEJgQUGB5JAgQaBVQYLUSWUCAAAECBAgQIECAAAECgQIKrEBc0QRqEVBg1TJJ9yBAgAABAgQIECBAgECZAgqsMufm1ASyCiiwsnLbjAABAgQIECBAgAABAgQmBBRYHgkCBFoFFFitRBYQIECAAAECBAgQIECAQKCAAisQVzSBWgQUWLVM0j0IECBAgAABAgQIECBQpoACq8y5OTWBrAIKrKzcNiNAgAABAgQIECBAgACBCQEFlkeCAIFWAQVWK5EFBAgQIECAAAECBAgQIBAooMAKxBVNoBYBBVYtk3QPAgQIECBAgAABAgQIlCmgwCpzbk5NIKuAAisrt80IECBAgAABAgQIECBAYEJAgeWRIECgVUCB1UpkAQECBAgQIECAAAECBAgECiiwAnFFE6hFQIFVyyTdgwABAgQIECBAgAABAmUKKLDKnJtTE8gqoMDKym0zAgQIECBAgAABAgQIEJgQUGB5JAgQaBVQYLUSWUCAAAECBAgQIECAAAECgQIKrEBc0QRqEVBg1TJJ9yBAgAABAgQIECBAgECZAgqsMufm1ASyCiiwsnLbjAABAgQIECBAgAABAgQmBIossEyRAIHZEHjgnsuSv0fNhpRbEiBAgAABAgQIECBAoG6B5B8Od5+3vFo3kdsRIDAtAQXWtOTtS4AAAQIECBAgQIAAgXEJKLDGNQ+nIUDgeQIKLI8DAQIECBAgQIAAAQIECKwJKLA8BwQIjFZAgTXa0TgYAQIECBAgQIAAAQIEsgoosLJy24wAgT4CCqw+WtYSIECAAAECBAgQIECgXgEFVr2zdTMCxQsosIofoQsQIECAAAECBAgQIEBgEAEF1iCMQggQiBBQYEWoyiRAgAABAgQIECBAgEB5Agqs8mbmxARmRkCBNTOjdlECBAgQIECAAAECBAhsKKDA8oAQIDBaAQXWaEfjYAQIECBAgAABAgQIEMgqoMDKym0zAgT6CCiw+mhZS4AAAQIECBAgQIAAgXoFFFj1ztbNCBQvoMAqfoQuQIAAAQIECBAgQIAAgUEEFFiDMAohQCBCQIEVoSqTAAECBAgQIECAAAEC5QkosMqbmRMTmBkBBdbMjNpFCRAgQIAAAQIECBAgsKGAAssDQoDAaAUUWKMdjYMRIECAAAECBAgQIEAgq4ACKyu3zQgQ6COgwOqjZS0BAgQIECBAgAABAgTqFVBg1TtbNyNQvIACq/gRugABAgQIECBAgAABAgQGEVBgDcIohACBCAEFVoSqTAIECBAgQIAAAQIECJQnoMAqb2ZOTGBmBBRYMzNqFyVAgAABAgQIECBAgMCGAgosDwgBAqMVUGCNdjQORoAAAQIECBAgQIAAgawCCqys3DYjQKCPgAKrj5a1BAgQIECAAAECBAgQqFdAgVXvbN2MQPECCqziR+gCBAgQIECAAAECBAgQGERAgTUIoxACBCIEFFgRqjIJECBAgAABAgQIECBQnoACq7yZOTGBmRFQYM3MqF2UAAECBAgQIECAAAECGwoosDwgBAiMVkCBNdrROBgBAgQIECBAgAABAgSyCiiwsnLbjACBPgIKrD5a1hIgQIAAAQIECBAgQKBeAQVWvbN1MwLFCyiwih+hCxAgQIAAAQIECBAgQGAQAQXWIIxCCBCIEFBgRajKJECAAAECBAgQIECAQHkCCqzyZubEBGZGQIE1M6N2UQIECBAgQIAAAQIECGwooMDygBAgMFoBBdZoR+NgBAgQIECAAAECBAgQyCqQXGCtrq7uy3pimxEgMDMCc3Nzvr/MzLRdlAABAgQIECBAgAABAusLJBdYcAkQIECAAAECBAgQIECAAAECBAhECiiwInVlEyBAgAABAgQIECBAgAABAgQIJAsosJIJBRAgQIAAAQIECBAgQIAAAQIECEQKKLAidWUTIECAAAECBAgQIECAAAECBAgkCyiwkgkFECBAgAABAgQIECBAgAABAgQIRAoosCJ1ZRMgQIAAAQIECBAgQIAAAQIECCQLKLCSCQUQIECAAAECBAgQIECAAAECBAhECiiwInVlEyBAgAABAgQIECBAgAABAgQIJAsosJIJBRAgQIAAAQIECBAgQIAAAQIECEQKKLAidWUTIECAAAECBAgQIECAAAECBAgkCyiwkgkFECBAgAABAgQIECBAgAABAgQIRAoosCJ1ZRMgQIAAAQIECBAgQIAAAQIECCQLKLCSCQUQIECAAAECBAgQIECAAAECBAhECiiwInVlEyBAgAABAgQIECBAgAABAgQIJAsosJIJBRAgQIAAAQIECBAgQIAAAQIECEQKKLAidWUTIECAAAECBAgQIECAAAECBAgkCyiwkgkFECBAgAABAgQIECBAgAABAgQIRAoosCJ1ZRMgQIAAAQIECBAgQIAAAQIECCQLKLCSCQUQIECAAAECBAgQIECAAAECBAhECiiwInVlEyBAgAABAgQIECBAgAABAgQIJAsosJIJBRAgQIAAAQIECBAgQIAAAQIECEQKKLAidWUTIECAAAECBAgQIECAAAECBAgkCyiwkgkFECBAgAABAgQIECBAgAABAgQIRAoosCJ1ZRMgQIAAAQIECBAgQIAAAQIECCQLKLCSCQUQIECAAAECBAgQIECAAAECBAhECiiwInVlEyBAgAABAgQIECBAgAABAgQIJAsosJIJBRAgQIAAAQIECBAgQIAAAQIECEQKKLAidWUTIECAAAECBAgQIECAAAECBAgkCyiwkgkFECBAgAABAgQIECBAgAABAgQIRAoosCJ1ZRMgQIAAAQIECBAgQIAAAQIECCQLKLCSCQUQIECAAAECBAgQIECAAAECBAhECiiwInVlEyBAgAABAgQIECBAgAABAgQIJAsosJIJBRAgQIAAAQIECBAgQIAAAQIECEQKKLAidWUTIECAAAECBAgQIECAAAECBAgkCyiwkgkFECBAgAABAgQIECBAgAABAgQIRAoosCJ1ZRMgQIAAAQIECBAgQIAAAQIECCQLKLCSCQUQIECAAAECBAgQIECAAAECBAhECiiwInVlEyBAgAABAgQIECBAgAABAgQIJAsosJIJBRAgQIAAAQIECBAgQIAAAQIECEQKKLAidWUTIECAAAECBAgQIECAAAECBAgkCyiwkgkFECBAgAABAgQIECBAgAABAgQIRAoosCJ1ZRMgQIAAAQIECBAgQIAAAQIECCQLKLCSCQUQIECAAAECBAgQIECAAAECBAhECiiwInVlEyBAgAABAgQIECBAgAABAgQIJAsosJIJBRAgQIAAAQIECBAgQIAAAQIECEQKKLAidWUTIECAAAECBAgQIECAAAECBAgkCyiwkgkFECBAgAABAgQIECBAgAABAgQIRAoosCJ1ZRMgQIAAAQIECBAgQIAAAQIECCQLKLCSCQUQIECAAAECBAgQIECAAAECBAhECiiwInVlEyBAgAABAgQIECBAgAABAgQIJAsosJIJBRAgQIAAAQIECBAgQIAAAQIECEQKKLAidWUTIECAAAECBAgQIECAAAECBAgkCyiwkgkFECBAgAABAgQIECBAgAABAgQIRAoosCJ1ZRMgQIAAAQIECBAgQIAAAQIECCQLKLCSCQUQIECAAAECBAgQIECAAAECBAhECiiwInVlEyBAgAABAgQIECBAgAABAgQIJAsosJIJBRAgQIAAAQIECBAgQIAAAQIECEQKKLAidWUTIECAAAECBAgQIECAAAECBAgkCyiwkgkFECBAgAABAgQIECBAgAABAgQIRAoosCJ1ZRMgQIAAAQIECBAgQIAAAQIECCQLKLCSCQUQIECAAAECBAgQIECAAAECBAhECiiwInVlEyBAgAABAgQIECBAgAABAgQIJAsosJIJBRAgQIAAAQIECBAgQIAAAQIECEQKKLAidWUTIECAAAECBAgQIECAAAECBAgkCyiwkgkFECBAgAABAgQIECBAgAABAgQIRAoosCJ1ZRMgQIAAAQIECBAgQIAAAQIECCQLKLCSCQUQIECAAAECBAgQIECAAAECBAhECiiwInVlEyBAgAABAgQIECBAgAABAgQIJAsosJIJBRAgQIAAAQIECBAgQIAAAQIECEQKKLAidWUTIECAAAECBAgQIECAAAECBAgkCyiwkgkFECBAgAABAgQIECBAgAABAgQIRAr8B0ccguHoxKiGAAAAAElFTkSuQmCC;" vertex="1" parent="WIyWlLk6GJQsqaUBKTNV-1">
          <mxGeometry x="28" y="4" width="346.1" height="122" as="geometry" />
        </mxCell>
        <mxCell id="kBNtGNTOLB4gPQPqJTyC-14" value="&lt;div&gt;&lt;font style=&quot;font-size: 30px;&quot;&gt;&lt;span style=&quot;color: rgb(44, 63, 177);&quot;&gt;&lt;font&gt;&lt;b&gt;Diagrama&amp;nbsp;&lt;/b&gt;&lt;/font&gt;&lt;/span&gt;&lt;/font&gt;&lt;/div&gt;&lt;div&gt;&lt;font style=&quot;font-size: 30px;&quot;&gt;&lt;span style=&quot;color: rgb(44, 63, 177);&quot;&gt;&lt;font&gt;&lt;b&gt;Árvore de Decisão&lt;/b&gt;&lt;/font&gt;&lt;/span&gt;&lt;/font&gt;&lt;/div&gt;" style="text;html=1;align=center;verticalAlign=middle;whiteSpace=wrap;rounded=0;" vertex="1" parent="WIyWlLk6GJQsqaUBKTNV-1">
          <mxGeometry x="451" y="26" width="268" height="78" as="geometry" />
        </mxCell>
        <mxCell id="fLGolEXC_iFnPBHrh-AX-0" value="" style="shape=image;verticalLabelPosition=bottom;labelBackgroundColor=default;verticalAlign=top;aspect=fixed;imageAspect=0;image=data:image/png,iVBORw0KGgoAAAANSUhEUgAAAGQAAABkCAYAAABw4pVUAAAACXBIWXMAAAsTAAALEwEAmpwYAAACP0lEQVR4nO2dz0obURSH78rH8CaQbmZwUYlkk0cQZqngH5q4LYgv0LjT+g4uhbyC4k67r267EpoW7hu4uuVeqkTowgpyfnfm++BAmNXkfHPOuZMhc50DAAAAAAAAAAAAAIBSqapqxferr75f//L9OhYSC9+vT9O5u7aRvphAguNbYrVXn7i28fdqi9dnkxjmR0XE1emn50pxbePparNOcvjPeDpv1zUh4+GGeWtKMRisxePJJkJU4sf55zj4sIYQtTYVutayUouyTnxAyMsrzzrxASEIkW1ZVIgxCBGjJCHjpQVHZ1ZZykLCUiBkbi8BIQKJDwihZZlS0gwZM9T15kZY+swqa44QWtacCjFvTYGWVcZQ98wQewkBIVSIKSXdh3halr2EgBAqxBRalhgIEQMhYiBEDISIgRAxECIGQsRQEbK4OIxfJk0cfhzF4foozqZNPsadupGQ2bSJ+9t78eH+Lsfe9m4+hhAjIRvroyzi8fcix8Pd91wpCDESMvyHkCQJIVYta9LkNpVEpNjd2onHB7Qs06E+mza5UlJlJBkMdR5Q2aOy7A2viE4+MeRPn8aU9CYH38UKUQ6PEHsJoetCmCHGsMoSAyFiIEQMZogYLHvFQIgYCBEDIWIw1MVg2SsGQsRAiBgIEQMhYiBEDISIgRAxECIGQsRAiBgl/ZY17uI7F0sJ32IheVOwtNGWdZLDK+PyeVOw6qdrA75XfbPaS8q/V/SqW1cq6eTbJ6S+sc4rAAAAAAAAAIDrJn8AvnDYXzK7ORwAAAAASUVORK5CYII=;" vertex="1" parent="WIyWlLk6GJQsqaUBKTNV-1">
          <mxGeometry x="267" y="671.75" width="46.5" height="46.5" as="geometry" />
        </mxCell>
        <mxCell id="fLGolEXC_iFnPBHrh-AX-3" value="" style="rounded=0;whiteSpace=wrap;html=1;strokeColor=#000000;strokeWidth=1;" vertex="1" parent="WIyWlLk6GJQsqaUBKTNV-1">
          <mxGeometry x="285.25" y="683" width="10" height="10" as="geometry" />
        </mxCell>
        <mxCell id="fLGolEXC_iFnPBHrh-AX-4" value="&lt;font style=&quot;font-size: 7px;&quot;&gt;1&lt;/font&gt;" style="text;html=1;align=center;verticalAlign=middle;whiteSpace=wrap;rounded=0;" vertex="1" parent="WIyWlLk6GJQsqaUBKTNV-1">
          <mxGeometry x="281" y="679" width="19.25" height="14" as="geometry" />
        </mxCell>
        <mxCell id="fLGolEXC_iFnPBHrh-AX-6" value="" style="shape=image;verticalLabelPosition=bottom;labelBackgroundColor=default;verticalAlign=top;aspect=fixed;imageAspect=0;image=data:image/png,iVBORw0KGgoAAAANSUhEUgAAAGQAAABkCAYAAABw4pVUAAAACXBIWXMAAAsTAAALEwEAmpwYAAACP0lEQVR4nO2dz0obURSH78rH8CaQbmZwUYlkk0cQZqngH5q4LYgv0LjT+g4uhbyC4k67r267EpoW7hu4uuVeqkTowgpyfnfm++BAmNXkfHPOuZMhc50DAAAAAAAAAAAAAIBSqapqxferr75f//L9OhYSC9+vT9O5u7aRvphAguNbYrVXn7i28fdqi9dnkxjmR0XE1emn50pxbePparNOcvjPeDpv1zUh4+GGeWtKMRisxePJJkJU4sf55zj4sIYQtTYVutayUouyTnxAyMsrzzrxASEIkW1ZVIgxCBGjJCHjpQVHZ1ZZykLCUiBkbi8BIQKJDwihZZlS0gwZM9T15kZY+swqa44QWtacCjFvTYGWVcZQ98wQewkBIVSIKSXdh3halr2EgBAqxBRalhgIEQMhYiBEDISIgRAxECIGQsRQEbK4OIxfJk0cfhzF4foozqZNPsadupGQ2bSJ+9t78eH+Lsfe9m4+hhAjIRvroyzi8fcix8Pd91wpCDESMvyHkCQJIVYta9LkNpVEpNjd2onHB7Qs06E+mza5UlJlJBkMdR5Q2aOy7A2viE4+MeRPn8aU9CYH38UKUQ6PEHsJoetCmCHGsMoSAyFiIEQMZogYLHvFQIgYCBEDIWIw1MVg2SsGQsRAiBgIEQMhYiBEDISIgRAxECIGQsRAiBgl/ZY17uI7F0sJ32IheVOwtNGWdZLDK+PyeVOw6qdrA75XfbPaS8q/V/SqW1cq6eTbJ6S+sc4rAAAAAAAAAIDrJn8AvnDYXzK7ORwAAAAASUVORK5CYII=;" vertex="1" parent="WIyWlLk6GJQsqaUBKTNV-1">
          <mxGeometry x="120" y="726.75" width="46.5" height="46.5" as="geometry" />
        </mxCell>
        <mxCell id="fLGolEXC_iFnPBHrh-AX-7" value="" style="rounded=0;whiteSpace=wrap;html=1;strokeColor=#000000;strokeWidth=1;" vertex="1" parent="WIyWlLk6GJQsqaUBKTNV-1">
          <mxGeometry x="138.25" y="738" width="10" height="10" as="geometry" />
        </mxCell>
        <mxCell id="fLGolEXC_iFnPBHrh-AX-8" value="&lt;font style=&quot;font-size: 7px;&quot;&gt;2&lt;/font&gt;" style="text;html=1;align=center;verticalAlign=middle;whiteSpace=wrap;rounded=0;" vertex="1" parent="WIyWlLk6GJQsqaUBKTNV-1">
          <mxGeometry x="134" y="734" width="19.25" height="14" as="geometry" />
        </mxCell>
        <mxCell id="fLGolEXC_iFnPBHrh-AX-9" value="" style="shape=image;verticalLabelPosition=bottom;labelBackgroundColor=default;verticalAlign=top;aspect=fixed;imageAspect=0;image=data:image/png,iVBORw0KGgoAAAANSUhEUgAAAGQAAABkCAYAAABw4pVUAAAACXBIWXMAAAsTAAALEwEAmpwYAAACP0lEQVR4nO2dz0obURSH78rH8CaQbmZwUYlkk0cQZqngH5q4LYgv0LjT+g4uhbyC4k67r267EpoW7hu4uuVeqkTowgpyfnfm++BAmNXkfHPOuZMhc50DAAAAAAAAAAAAAIBSqapqxferr75f//L9OhYSC9+vT9O5u7aRvphAguNbYrVXn7i28fdqi9dnkxjmR0XE1emn50pxbePparNOcvjPeDpv1zUh4+GGeWtKMRisxePJJkJU4sf55zj4sIYQtTYVutayUouyTnxAyMsrzzrxASEIkW1ZVIgxCBGjJCHjpQVHZ1ZZykLCUiBkbi8BIQKJDwihZZlS0gwZM9T15kZY+swqa44QWtacCjFvTYGWVcZQ98wQewkBIVSIKSXdh3halr2EgBAqxBRalhgIEQMhYiBEDISIgRAxECIGQsRQEbK4OIxfJk0cfhzF4foozqZNPsadupGQ2bSJ+9t78eH+Lsfe9m4+hhAjIRvroyzi8fcix8Pd91wpCDESMvyHkCQJIVYta9LkNpVEpNjd2onHB7Qs06E+mza5UlJlJBkMdR5Q2aOy7A2viE4+MeRPn8aU9CYH38UKUQ6PEHsJoetCmCHGsMoSAyFiIEQMZogYLHvFQIgYCBEDIWIw1MVg2SsGQsRAiBgIEQMhYiBEDISIgRAxECIGQsRAiBgl/ZY17uI7F0sJ32IheVOwtNGWdZLDK+PyeVOw6qdrA75XfbPaS8q/V/SqW1cq6eTbJ6S+sc4rAAAAAAAAAIDrJn8AvnDYXzK7ORwAAAAASUVORK5CYII=;" vertex="1" parent="WIyWlLk6GJQsqaUBKTNV-1">
          <mxGeometry x="686" y="756.75" width="46.5" height="46.5" as="geometry" />
        </mxCell>
        <mxCell id="fLGolEXC_iFnPBHrh-AX-10" value="" style="rounded=0;whiteSpace=wrap;html=1;strokeColor=#000000;strokeWidth=1;" vertex="1" parent="WIyWlLk6GJQsqaUBKTNV-1">
          <mxGeometry x="704.25" y="768" width="10" height="10" as="geometry" />
        </mxCell>
        <mxCell id="fLGolEXC_iFnPBHrh-AX-11" value="&lt;font style=&quot;font-size: 7px;&quot;&gt;4&lt;/font&gt;" style="text;html=1;align=center;verticalAlign=middle;whiteSpace=wrap;rounded=0;" vertex="1" parent="WIyWlLk6GJQsqaUBKTNV-1">
          <mxGeometry x="700" y="764" width="19.25" height="14" as="geometry" />
        </mxCell>
        <mxCell id="fLGolEXC_iFnPBHrh-AX-12" value="" style="shape=image;verticalLabelPosition=bottom;labelBackgroundColor=default;verticalAlign=top;aspect=fixed;imageAspect=0;image=data:image/png,iVBORw0KGgoAAAANSUhEUgAAAGQAAABkCAYAAABw4pVUAAAACXBIWXMAAAsTAAALEwEAmpwYAAACP0lEQVR4nO2dz0obURSH78rH8CaQbmZwUYlkk0cQZqngH5q4LYgv0LjT+g4uhbyC4k67r267EpoW7hu4uuVeqkTowgpyfnfm++BAmNXkfHPOuZMhc50DAAAAAAAAAAAAAIBSqapqxferr75f//L9OhYSC9+vT9O5u7aRvphAguNbYrVXn7i28fdqi9dnkxjmR0XE1emn50pxbePparNOcvjPeDpv1zUh4+GGeWtKMRisxePJJkJU4sf55zj4sIYQtTYVutayUouyTnxAyMsrzzrxASEIkW1ZVIgxCBGjJCHjpQVHZ1ZZykLCUiBkbi8BIQKJDwihZZlS0gwZM9T15kZY+swqa44QWtacCjFvTYGWVcZQ98wQewkBIVSIKSXdh3halr2EgBAqxBRalhgIEQMhYiBEDISIgRAxECIGQsRQEbK4OIxfJk0cfhzF4foozqZNPsadupGQ2bSJ+9t78eH+Lsfe9m4+hhAjIRvroyzi8fcix8Pd91wpCDESMvyHkCQJIVYta9LkNpVEpNjd2onHB7Qs06E+mza5UlJlJBkMdR5Q2aOy7A2viE4+MeRPn8aU9CYH38UKUQ6PEHsJoetCmCHGsMoSAyFiIEQMZogYLHvFQIgYCBEDIWIw1MVg2SsGQsRAiBgIEQMhYiBEDISIgRAxECIGQsRAiBgl/ZY17uI7F0sJ32IheVOwtNGWdZLDK+PyeVOw6qdrA75XfbPaS8q/V/SqW1cq6eTbJ6S+sc4rAAAAAAAAAIDrJn8AvnDYXzK7ORwAAAAASUVORK5CYII=;" vertex="1" parent="WIyWlLk6GJQsqaUBKTNV-1">
          <mxGeometry x="803" y="661.75" width="46.5" height="46.5" as="geometry" />
        </mxCell>
        <mxCell id="fLGolEXC_iFnPBHrh-AX-13" value="" style="rounded=0;whiteSpace=wrap;html=1;strokeColor=#000000;strokeWidth=1;" vertex="1" parent="WIyWlLk6GJQsqaUBKTNV-1">
          <mxGeometry x="821.25" y="673" width="10" height="10" as="geometry" />
        </mxCell>
        <mxCell id="fLGolEXC_iFnPBHrh-AX-14" value="&lt;font style=&quot;font-size: 7px;&quot;&gt;3&lt;/font&gt;" style="text;html=1;align=center;verticalAlign=middle;whiteSpace=wrap;rounded=0;" vertex="1" parent="WIyWlLk6GJQsqaUBKTNV-1">
          <mxGeometry x="817" y="669" width="19.25" height="14" as="geometry" />
        </mxCell>
        <mxCell id="fLGolEXC_iFnPBHrh-AX-15" value="" style="shape=image;verticalLabelPosition=bottom;labelBackgroundColor=default;verticalAlign=top;aspect=fixed;imageAspect=0;image=data:image/png,iVBORw0KGgoAAAANSUhEUgAAAGQAAABkCAYAAABw4pVUAAAACXBIWXMAAAsTAAALEwEAmpwYAAACP0lEQVR4nO2dz0obURSH78rH8CaQbmZwUYlkk0cQZqngH5q4LYgv0LjT+g4uhbyC4k67r267EpoW7hu4uuVeqkTowgpyfnfm++BAmNXkfHPOuZMhc50DAAAAAAAAAAAAAIBSqapqxferr75f//L9OhYSC9+vT9O5u7aRvphAguNbYrVXn7i28fdqi9dnkxjmR0XE1emn50pxbePparNOcvjPeDpv1zUh4+GGeWtKMRisxePJJkJU4sf55zj4sIYQtTYVutayUouyTnxAyMsrzzrxASEIkW1ZVIgxCBGjJCHjpQVHZ1ZZykLCUiBkbi8BIQKJDwihZZlS0gwZM9T15kZY+swqa44QWtacCjFvTYGWVcZQ98wQewkBIVSIKSXdh3halr2EgBAqxBRalhgIEQMhYiBEDISIgRAxECIGQsRQEbK4OIxfJk0cfhzF4foozqZNPsadupGQ2bSJ+9t78eH+Lsfe9m4+hhAjIRvroyzi8fcix8Pd91wpCDESMvyHkCQJIVYta9LkNpVEpNjd2onHB7Qs06E+mza5UlJlJBkMdR5Q2aOy7A2viE4+MeRPn8aU9CYH38UKUQ6PEHsJoetCmCHGsMoSAyFiIEQMZogYLHvFQIgYCBEDIWIw1MVg2SsGQsRAiBgIEQMhYiBEDISIgRAxECIGQsRAiBgl/ZY17uI7F0sJ32IheVOwtNGWdZLDK+PyeVOw6qdrA75XfbPaS8q/V/SqW1cq6eTbJ6S+sc4rAAAAAAAAAIDrJn8AvnDYXzK7ORwAAAAASUVORK5CYII=;" vertex="1" parent="WIyWlLk6GJQsqaUBKTNV-1">
          <mxGeometry x="986" y="558.75" width="46.5" height="46.5" as="geometry" />
        </mxCell>
        <mxCell id="fLGolEXC_iFnPBHrh-AX-16" value="" style="rounded=0;whiteSpace=wrap;html=1;strokeColor=#000000;strokeWidth=1;" vertex="1" parent="WIyWlLk6GJQsqaUBKTNV-1">
          <mxGeometry x="1004.25" y="570" width="10" height="10" as="geometry" />
        </mxCell>
        <mxCell id="fLGolEXC_iFnPBHrh-AX-17" value="&lt;font style=&quot;font-size: 7px;&quot;&gt;5&lt;/font&gt;" style="text;html=1;align=center;verticalAlign=middle;whiteSpace=wrap;rounded=0;" vertex="1" parent="WIyWlLk6GJQsqaUBKTNV-1">
          <mxGeometry x="1000" y="566" width="19.25" height="14" as="geometry" />
        </mxCell>
        <mxCell id="fLGolEXC_iFnPBHrh-AX-18" value="" style="shape=image;verticalLabelPosition=bottom;labelBackgroundColor=default;verticalAlign=top;aspect=fixed;imageAspect=0;image=data:image/png,iVBORw0KGgoAAAANSUhEUgAAAGQAAABkCAYAAABw4pVUAAAACXBIWXMAAAsTAAALEwEAmpwYAAACP0lEQVR4nO2dz0obURSH78rH8CaQbmZwUYlkk0cQZqngH5q4LYgv0LjT+g4uhbyC4k67r267EpoW7hu4uuVeqkTowgpyfnfm++BAmNXkfHPOuZMhc50DAAAAAAAAAAAAAIBSqapqxferr75f//L9OhYSC9+vT9O5u7aRvphAguNbYrVXn7i28fdqi9dnkxjmR0XE1emn50pxbePparNOcvjPeDpv1zUh4+GGeWtKMRisxePJJkJU4sf55zj4sIYQtTYVutayUouyTnxAyMsrzzrxASEIkW1ZVIgxCBGjJCHjpQVHZ1ZZykLCUiBkbi8BIQKJDwihZZlS0gwZM9T15kZY+swqa44QWtacCjFvTYGWVcZQ98wQewkBIVSIKSXdh3halr2EgBAqxBRalhgIEQMhYiBEDISIgRAxECIGQsRQEbK4OIxfJk0cfhzF4foozqZNPsadupGQ2bSJ+9t78eH+Lsfe9m4+hhAjIRvroyzi8fcix8Pd91wpCDESMvyHkCQJIVYta9LkNpVEpNjd2onHB7Qs06E+mza5UlJlJBkMdR5Q2aOy7A2viE4+MeRPn8aU9CYH38UKUQ6PEHsJoetCmCHGsMoSAyFiIEQMZogYLHvFQIgYCBEDIWIw1MVg2SsGQsRAiBgIEQMhYiBEDISIgRAxECIGQsRAiBgl/ZY17uI7F0sJ32IheVOwtNGWdZLDK+PyeVOw6qdrA75XfbPaS8q/V/SqW1cq6eTbJ6S+sc4rAAAAAAAAAIDrJn8AvnDYXzK7ORwAAAAASUVORK5CYII=;" vertex="1" parent="WIyWlLk6GJQsqaUBKTNV-1">
          <mxGeometry x="788" y="296.75" width="46.5" height="46.5" as="geometry" />
        </mxCell>
        <mxCell id="fLGolEXC_iFnPBHrh-AX-19" value="" style="rounded=0;whiteSpace=wrap;html=1;strokeColor=#000000;strokeWidth=1;" vertex="1" parent="WIyWlLk6GJQsqaUBKTNV-1">
          <mxGeometry x="806.25" y="308" width="10" height="10" as="geometry" />
        </mxCell>
        <mxCell id="fLGolEXC_iFnPBHrh-AX-20" value="&lt;font style=&quot;font-size: 7px;&quot;&gt;6&lt;/font&gt;" style="text;html=1;align=center;verticalAlign=middle;whiteSpace=wrap;rounded=0;" vertex="1" parent="WIyWlLk6GJQsqaUBKTNV-1">
          <mxGeometry x="802" y="304" width="19.25" height="14" as="geometry" />
        </mxCell>
      </root>
    </mxGraphModel>
  </diagram>
</mxfile>
